<?xml version="1.0" encoding="UTF-8" standalone="no"?>
<svg
   xmlns:dc="http://purl.org/dc/elements/1.1/"
   xmlns:cc="http://creativecommons.org/ns#"
   xmlns:rdf="http://www.w3.org/1999/02/22-rdf-syntax-ns#"
   xmlns:svg="http://www.w3.org/2000/svg"
   xmlns="http://www.w3.org/2000/svg"
   viewBox="0 0 6674.0669 3869.24"
   height="3869.24"
   width="6674.0669"
   xml:space="preserve"
   id="svg2"
   version="1.1"><metadata
     id="metadata8"><rdf:RDF><cc:Work
         rdf:about=""><dc:format>image/svg+xml</dc:format><dc:type
           rdf:resource="http://purl.org/dc/dcmitype/StillImage" /></cc:Work></rdf:RDF></metadata><defs
     id="defs6" /><g
     transform="matrix(1.3333333,0,0,-1.3333333,0,3869.24)"
     id="g10"><g
       transform="scale(0.1)"
       id="g12"><g
         transform="scale(1.78031)"
         id="g14"><path
           id="path16"
           style="fill:#f9d4c4;fill-opacity:1;fill-rule:nonzero;stroke:none"
           d="M 10583.8,0 C 10017.4,296.914 9467.75,625.847 8938.46,984.831 8418.66,1337.3 7846.51,1763.01 7643.12,2353.42 c -15.05,43.58 -21.79,89.59 -21.12,135.7 3.04,207.21 13.03,861.88 24.72,1379.26 l -0.4,51.73 c 339.89,261.02 644.67,570.63 884.68,940.85 462.45,713.42 914.17,1568.05 1230.47,2442.39 l 5.56,-16.18 c 153.51,-137.39 401.87,-57.97 530.37,110.99 205.8,270.63 354.7,545.13 491,878.95 98.1,240.13 252.6,744.03 282.7,1106.55 20.1,241.09 18.2,526.37 -146.6,664.44 -99.4,83.2 -238.5,85.7 -352.8,27.2 -114.3,-58.4 -246.6,-217.95 -310.7,-344.39 l -7.4,16.34 c 97.7,838.75 195.6,1706.15 32.4,2508.35 -209.2,1028.7 -658.16,2027.3 -1396.41,2773.6 -738.24,746.4 -2073.29,1271 -3229.95,1271 -19.21,0 -38.47,-0.2 -57.78,-0.5 H 5478 c -19.31,0.3 -38.56,0.5 -57.76,0.5 -1156.65,0 -2491.73,-524.6 -3229.98,-1271 C 1452,14282.9 1003.04,13284.3 793.817,12255.6 629.134,11445.8 730.486,10569.5 829.06,9723.44 l -10.223,7.47 c -64.058,126.44 -196.4,285.99 -310.697,344.39 -114.304,58.5 -253.402,56 -352.742,-27.2 C -9.45018,9910.03 -11.3218,9624.75 8.71734,9383.66 38.8627,9021.14 193.385,8517.24 291.446,8277.11 427.768,7943.29 576.669,7668.79 782.478,7398.16 911,7229.2 1159.32,7149.78 1312.8,7287.17 l 10.31,3.15 c 316.05,-869.8 765.61,-1719.48 1225.76,-2429.36 236.5,-364.82 546.91,-677.92 881.21,-936.75 l 3.08,-55.83 c 11.33,-501.09 21.11,-1136.38 24.45,-1361.51 0.88,-60.05 -8.45,-119.86 -28.95,-176.32 C 3218.51,1752 2654.44,1332.75 2141.42,984.831 1612.13,625.847 1062.5,296.914 496.048,0 H 10583.8" /></g><g
         transform="scale(3.07092)"
         id="g18"><path
           id="path20"
           style="fill:#f9d4c4;fill-opacity:1;fill-rule:nonzero;stroke:none"
           d="m 16012.3,0 c -328.4,172.13 -647,362.823 -953.9,570.937 -301.3,204.336 -633,451.133 -750.9,793.413 -8.8,25.27 -12.7,51.94 -12.3,78.67 1.8,120.13 7.6,499.66 14.4,799.6 l -0.3,29.99 c 197.1,151.32 373.8,330.81 512.9,545.44 268.1,413.59 530,909.04 713.3,1415.92 l 3.3,-9.37 c 89,-79.65 232.9,-33.61 307.4,64.34 119.3,156.89 205.7,316.03 284.7,509.56 56.9,139.21 146.4,431.33 163.9,641.5 11.6,139.76 10.5,305.15 -85,385.19 -57.6,48.23 -138.3,49.66 -204.5,15.8 -66.3,-33.87 -143,-126.38 -180.1,-199.68 l -4.4,9.47 c 56.7,486.24 113.4,989.09 18.8,1454.14 -121.2,596.39 -381.5,1175.29 -809.5,1607.97 -428,432.68 -1202,736.82 -1872.5,736.82 -11.2,0 -22.3,-0.09 -33.5,-0.25 h -71.8 c -11.2,0.16 -22.4,0.25 -33.5,0.25 -670.5,0 -1444.5,-304.14 -1872.5,-736.82 -428,-432.68 -688.3,-1011.58 -809.6,-1607.97 -95.5,-469.45 -36.7,-977.44 20.5,-1467.95 l -6,4.34 c -37.1,73.3 -113.8,165.81 -180.1,199.68 -66.3,33.86 -146.9,32.43 -204.48,-15.8 -95.57,-80.04 -96.68,-245.43 -85.05,-385.19 17.48,-210.17 107.06,-502.29 163.93,-641.5 79,-193.53 165.3,-352.67 284.7,-509.56 74.5,-97.95 218.4,-143.99 307.4,-64.34 l 6,1.82 c 183.2,-504.25 443.8,-996.83 710.6,-1408.37 137.1,-211.5 317,-393.01 510.8,-543.06 l 1.8,-32.37 c 6.7,-295.35 12.4,-671.14 14.3,-795.66 0.5,-30.61 -4.5,-61.06 -14.7,-89.87 C 11746.3,1018.56 11417.1,773.839 11118,570.937 10811.1,362.823 10492.5,172.13 10164.1,0 h 5848.2" /></g><g
         transform="scale(1.06805)"
         id="g22"><path
           id="path24"
           style="fill:#d09181;fill-opacity:1;fill-rule:nonzero;stroke:none"
           d="m 1287.42,13020.5 c -14.51,0 -28.33,8.1 -37.35,20.7 -23.03,32.3 -45.59,64.8 -67.67,97.7 -97.45,145.1 -186.089,296.1 -266.898,451 -88.403,169.5 -167.336,343.9 -236.643,522.1 -71.081,182.6 -131.61,369.4 -179.229,559.6 -47.301,188.9 -79.801,380.3 -100.648,573.8 -18.462,171.4 -30.74,344.8 -20.715,517.1 8.076,138.6 27.441,291.9 104.802,411.1 38.216,58.9 92.206,111.6 163.909,123.1 13.748,2.3 27.412,3.3 40.988,3.3 55.745,0 109.875,-17.4 160.624,-41.7 96.346,-46 180.8,-117.8 257.21,-191.3 105.57,-101.7 199.78,-214.9 288.48,-331.6 4.95,-43.9 9.85,-87.7 14.69,-131.6 -14.11,0.4 -27.38,8.6 -36.38,20.8 -27.48,37.2 -55.4,74.2 -84.09,110.5 -2.62,3.4 -5.25,6.7 -7.88,10.1 -0.6,47.1 -6.68,94.5 -18.4,141.1 -4.48,17.7 -22.62,31.1 -40.88,31.1 -3.68,0 -7.37,-0.5 -10.96,-1.7 -21.42,-6.9 -34.37,-27.6 -29.9,-49.7 -62.44,71.7 -128.68,140.1 -200.711,201.9 -11.192,9.6 -22.529,19 -34.046,28.2 -2.546,2 -5.11,4.1 -7.659,6.1 -0.318,0.2 -0.607,0.4 -0.859,0.7 -0.227,0.1 -0.461,0.3 -0.732,0.5 -4.959,3.7 -9.9,7.6 -14.915,11.2 -19.164,14.2 -38.837,27.6 -59.132,40.1 -17.603,10.8 -35.692,20.9 -54.294,29.9 -4.754,2.3 -9.542,4.5 -14.355,6.7 l -2.447,1 c 1.006,-0.3 1.836,-0.7 1.873,-0.7 0.037,0 -0.808,0.4 -3.259,1.4 l -2.212,0.9 c -0.015,0 0.197,-0.2 0.544,-0.3 -7.135,2.8 -14.293,5.6 -21.552,8 -14.648,5 -29.614,9.1 -44.814,11.9 -3.167,0.5 -6.426,0.8 -9.586,1.5 -0.249,0 -0.498,0.1 -0.743,0.1 -6.243,0.6 -12.522,1 -18.802,1.1 -1.372,0 -2.743,0.1 -4.111,0.1 -5.051,0 -10.098,-0.2 -15.127,-0.6 -2.278,-0.2 -4.557,-0.4 -6.835,-0.7 -0.011,0 -0.022,0 -0.03,0 -10.763,-2.1 -20.989,-4.9 -31.329,-8.5 -1.993,-1 -4.012,-1.9 -5.998,-2.8 -4.294,-2.3 -8.485,-4.7 -12.559,-7.3 -2.114,-1.4 -4.144,-2.8 -6.218,-4.2 -6.868,-6.3 -14.22,-12.1 -20.836,-18.9 -5.244,-5.2 -10.27,-10.7 -15.083,-16.5 -2.099,-2.4 -4.107,-4.9 -6.159,-7.4 2.074,2.5 2.82,3.4 2.831,3.4 0.026,0 -3.475,-4.3 -4.184,-5.3 -7.933,-10.9 -15.222,-22.1 -21.937,-33.8 -7.615,-13.2 -14.483,-26.9 -20.715,-40.8 -0.351,-0.8 -2.882,-6.7 -2.919,-6.7 -0.011,0 0.337,0.9 1.295,3.2 -1.379,-3.4 -2.718,-6.7 -4.034,-10 -2.747,-7 -5.34,-14.1 -7.816,-21.2 -48.687,-139.8 -53.591,-283.1 -51.609,-432.3 2.289,-172.1 18.298,-345 42.853,-515.3 54.191,-375.9 164.944,-744.2 313.536,-1093.3 136.482,-320.7 304.405,-629.8 507.035,-913.5 13.29,-18.7 3.16,-47 -15.12,-57.7 -6.63,-3.9 -13.53,-5.6 -20.29,-5.6 m -496.09,3171.8 c -1.075,0.5 -2.348,1 -3.054,1.3 0.523,-0.2 1.046,-0.4 1.569,-0.6 0.033,0 0.066,0 0.099,0 l 1.386,-0.7" /></g><g
         transform="scale(1.03961)"
         id="g26"><path
           id="path28"
           style="fill:#d09181;fill-opacity:1;fill-rule:nonzero;stroke:none"
           d="m 822.207,14908.5 c -18.787,0 -36.237,14.1 -41.771,32.1 -29.868,96.9 -15.086,205.5 7.511,302.3 22.935,98.4 58.942,193.8 102.374,284.8 36.62,76.8 79.499,152.8 135.529,217.3 25.45,29.2 56.42,52.7 81.72,82.2 4.01,4.6 7.89,9.5 11.75,14.3 -0.7,-0.9 -0.99,-1.3 -0.99,-1.3 -0.01,0 3.55,4.4 4.28,5.5 2.03,2.7 4.02,5.4 5.98,8.2 7.34,10.2 14.33,20.7 20.95,31.3 14.34,23.2 26.67,47.5 37.8,72.4 0.26,0.5 0.47,1 0.66,1.4 0.66,1.7 1.34,3.4 1.99,5 1.36,3.4 2.69,6.8 3.97,10.2 2.17,5.8 4.25,11.5 6.23,17.4 4.84,14.2 9.13,28.5 12.86,43 3.8,14.7 7.02,29.6 9.64,44.6 0.91,5.1 1.74,10.3 2.49,15.4 -0.02,-0.2 -0.04,-0.3 -0.04,-0.3 -0.04,0 0.87,7 0.98,7.9 0.44,3.9 0.85,7.8 1.2,11.7 2.83,30.5 3.2,61.2 1.11,91.8 -0.67,9.7 -1.67,19.2 -2.7,28.7 -0.12,1.2 -0.22,1.9 -0.27,2.6 -0.11,0.7 -0.25,1.4 -0.4,2.4 -0.45,2.8 -0.84,5.6 -1.31,8.4 -2.74,16.8 -6.32,33.4 -10.48,50 -0.18,0.8 -0.35,1.4 -0.5,2.2 35.36,-40.6 69.52,-82.2 102.87,-124.2 1.18,-95.6 -19.52,-190.7 -61.01,-278.4 -24.06,-50.8 -55.8,-98.2 -93.4,-140 -24.75,-27.6 -54.27,-50 -78.2,-78.4 -3.25,-3.8 -6.38,-7.7 -9.54,-11.6 -0.41,-0.5 -0.84,-1 -1.27,-1.4 -0.55,-0.9 -1.09,-1.6 -1.62,-2.3 -5.24,-7 -10.35,-14.1 -15.33,-21.3 -11.37,-16.4 -22.12,-33.1 -32.39,-50.3 -23.729,-39.4 -45.015,-80.3 -64.381,-122 -5.271,-11.4 -10.396,-22.8 -15.375,-34.3 -1.266,-2.9 -2.495,-5.8 -3.75,-8.7 -0.038,-0.1 -0.079,-0.2 -0.116,-0.3 -0.128,-0.3 -0.275,-0.7 -0.436,-1.1 -2.014,-4.9 -4.055,-9.8 -6.031,-14.7 -9.405,-23.3 -18.22,-46.8 -26.384,-70.6 -15.954,-46.4 -29.552,-93.7 -39.694,-141.7 -2.51,-11.9 -4.813,-23.8 -6.864,-35.9 -1,-5.8 -1.951,-11.8 -2.834,-17.7 -0.259,-1.7 -0.875,-3.9 -1.161,-6 0.053,-0.9 0.053,-1.9 -0.067,-2.9 -2.63,-21.5 -4.355,-43.2 -4.787,-64.9 -0.421,-20.1 0.252,-40.3 2.495,-60.3 0.09,-0.9 0.165,-1.6 0.221,-2.2 0.316,-2 0.617,-4 0.962,-6 0.662,-4.1 1.409,-8 2.217,-11.9 1.905,-9.3 4.246,-18.4 7.019,-27.4 7.139,-23.1 -8.465,-46.1 -30.228,-53.2 -3.825,-1.2 -7.68,-1.8 -11.479,-1.8 m 33.542,227.8 v 0 0 m 264.021,705.6 c -0.13,-0.1 -0.27,-0.2 -0.37,-0.3 0.12,0.1 0.25,0.2 0.37,0.3 m 1.44,1.9 c -0.45,-0.6 -0.84,-1.1 -1.18,-1.5 0.39,0.5 0.79,1 1.18,1.5" /></g><g
         transform="scale(1.04298)"
         id="g30"><path
           id="path32"
           style="fill:#c27b6b;fill-opacity:1;fill-rule:nonzero;stroke:none"
           d="m 1311.4,16123.6 c -33.25,41.8 -67.3,83.3 -102.55,123.8 -4.57,22.6 8.69,43.8 30.63,50.9 3.67,1.1 7.44,1.7 11.21,1.7 18.7,0 37.28,-13.7 41.86,-31.9 12.01,-47.7 18.24,-96.2 18.85,-144.5" /></g><path
         id="path34"
         style="fill:#d09181;fill-opacity:1;fill-rule:nonzero;stroke:none"
         d="m 1731.15,14326 c -42.47,0 -85.73,8 -125.15,21.1 -47.51,15.7 -92.31,38.1 -131.52,69.3 -39.08,31.1 -76.89,64.5 -110.21,101.8 -41.24,46.1 -75.65,97.7 -99.93,154.6 -29.46,69.1 -44.67,142 -50.15,216.8 -9.3,127.1 11.2,254.7 40.77,378 15.03,62.7 32.13,124.9 51.05,186.6 10.58,34.5 21.76,68.8 33.68,102.9 4.57,13 8.83,30.9 15.68,45.4 26.89,-14.6 53.4,-29.8 79.49,-45.8 -43.91,-121.1 -79.74,-245.8 -106.45,-371.8 -4.88,-23 -9.27,-46.2 -13.02,-69.4 -1.34,-8.4 -2.55,-16.7 -3.78,-25.1 -0.12,-0.8 -0.22,-1.5 -0.3,-2.1 -0.03,-0.2 -0.06,-0.5 -0.1,-0.8 -0.43,-3.6 -0.92,-7.1 -1.34,-10.7 -1.92,-16 -3.51,-31.9 -4.77,-48 -2.49,-32 -3.58,-64.1 -2.91,-96.2 0.37,-17.4 1.25,-34.8 2.72,-52.1 0.64,-7.6 1.4,-15.1 2.26,-22.6 0.04,-0.3 1.19,-9 1.15,-9 -0.01,0 -0.03,0.1 -0.09,0.5 0.43,-3 0.89,-5.9 1.35,-8.8 5.05,-31.9 12.36,-63.4 22.44,-94.1 2.84,-8.6 5.91,-17.2 9.2,-25.7 1.09,-2.8 2.2,-5.6 3.33,-8.4 -0.64,1.6 -0.88,2.2 -0.87,2.2 0.04,0 2.86,-6.7 3.17,-7.4 5.33,-11.9 11.1,-23.6 17.35,-35 7.14,-13.1 14.88,-25.9 23.16,-38.3 3.35,-5 6.79,-10 10.31,-14.9 1.25,-1.7 8.05,-10.6 7.94,-10.6 -0.03,0 -0.42,0.5 -1.33,1.6 15.35,-19.3 31.69,-37.6 49.11,-55 16.79,-16.8 34.4,-32.7 52.43,-48.1 9.03,-7.7 18.14,-15.4 27.35,-22.9 0.26,-0.2 0.72,-0.5 1.26,-0.9 0.46,-0.4 1.26,-1.1 2.51,-2 0.34,-0.3 0.69,-0.5 1.03,-0.7 0.08,-0.2 0.13,-0.3 0.15,-0.4 -0.02,0.1 -0.04,0.2 -0.07,0.3 3.11,-2.3 6.27,-4.4 9.46,-6.5 17.11,-11.3 35.3,-21 54.03,-29.3 0.51,-0.3 1.02,-0.5 1.54,-0.7 2.33,-0.8 4.62,-1.9 6.93,-2.8 4.69,-1.8 9.42,-3.5 14.17,-5.1 10.57,-3.7 21.3,-7 32.13,-9.8 10.88,-2.9 21.87,-5.3 32.96,-7.2 0.84,-0.1 6.56,-1.5 8.47,-1.5 0.3,0 0.51,0 0.59,0.1 -4.06,0.5 -6.08,0.8 -6.04,0.8 0.02,0 1.07,-0.2 3.13,-0.4 1,-0.1 2.02,-0.2 3.02,-0.4 5.02,-0.5 10.03,-1 15.06,-1.3 6.67,-0.5 13.37,-0.7 20.06,-0.7 4.22,0 8.43,0.1 12.64,0.3 4.79,0.2 9.53,0.6 14.29,1.1 -0.09,-0.1 -0.18,-0.1 -0.27,-0.2 0.09,0.1 0.2,0.1 0.31,0.2 0.55,0 1.1,0.1 1.66,0.1 1.77,0.2 2.86,0.5 3.38,0.8 1.2,0.1 2.32,0.2 3.1,0.3 10.09,2 20.07,4.6 29.73,8.1 0.04,0 0.08,0 0.12,0.1 -0.19,-0.2 -0.4,-0.4 -0.6,-0.5 1.07,0.9 3.61,1.6 4.98,2.2 4.96,2.4 9.78,5 14.46,7.8 2.31,1.4 4.56,2.9 6.78,4.4 1.46,2.6 8.31,7 10.18,8.8 3.38,3.3 6.42,6.9 9.6,10.4 0.05,0 0.11,0.1 0.16,0.1 1.59,2.4 3.27,4.8 4.83,7.2 0.24,0.4 0.48,0.8 0.72,1.1 8.38,-33.5 16.88,-67 25.52,-100.5 -41.27,-29.3 -92.05,-41.3 -144,-41.3 m -124.19,116.1 v 0 0 m -261.94,269.2 v 0 0 m 415.47,-294.4 c 2.11,1.2 3.75,1.6 4.66,1.6 0.84,0 1.06,-0.3 0.42,-0.7 -1.84,-0.2 -3.86,-0.4 -5.04,-0.9 -0.02,0 -0.03,0 -0.04,0 m 38.03,9.4 c 2.53,2 3.83,2.7 4.17,2.7 0.52,0 -1.2,-1.6 -4.17,-2.7 m -260.47,54 c -0.03,0 -0.05,0 -0.08,0.1 -0.53,0.7 -2.26,1.9 -3.54,2.7 -0.6,0.7 -0.63,0.9 -0.35,0.9 0.69,0 3.31,-1.6 3.97,-3.7" /><path
         id="path36"
         style="fill:#d09181;fill-opacity:1;fill-rule:nonzero;stroke:none"
         d="m 1655.66,15395.6 c -3.46,1.9 -6.72,4.1 -9.71,6.6 -15.94,13.5 -32.02,26.8 -48.31,39.9 -7.56,6.1 -15.14,12.1 -22.78,18.1 -1.67,1.3 -4.43,3.5 -4.43,3.5 0,0 0,0 0.01,0 -0.86,0.6 -1.73,1.3 -2.6,1.9 -3.72,2.9 -7.47,5.7 -11.22,8.5 -39.37,29.7 -80.02,57.1 -121.76,82.6 0.55,1.5 1.1,3 1.66,4.6 2.83,2.5 5.67,5 8.51,7.5 17.72,15.6 17.14,47.9 0,63.6 -9.36,8.6 -20.41,12.7 -31.48,12.7 -11.3,0 -22.62,-4.3 -32.17,-12.7 -4.91,-4.3 -10.19,-8.4 -14.83,-13.1 -4.44,-4.4 -8.08,-10.3 -11.18,-16.8 -47.6,25.7 -96.39,49.5 -146.1,71.6 -22.96,10.2 -26.49,42 -16.15,61.6 7.92,15 22.47,21.3 37.58,21.3 8.15,0 16.47,-1.8 24,-5.2 37.83,-16.8 75.34,-34.4 112.22,-53.2 95.13,-48.6 183.77,-106.9 267.79,-172 6.71,-43.7 13.7,-87.4 20.95,-131 m -84.88,67.8 c 0.33,-0.3 0.94,-0.7 1.89,-1.5 -0.63,0.5 -1.26,1 -1.89,1.5" /><path
         id="path38"
         style="fill:#c27b6b;fill-opacity:1;fill-rule:nonzero;stroke:none"
         d="m 1434.86,15556.7 c -26.09,16 -52.6,31.2 -79.49,45.8 3.1,6.5 6.74,12.4 11.18,16.8 4.64,4.7 9.92,8.8 14.83,13.1 9.55,8.4 20.87,12.7 32.17,12.7 11.07,0 22.12,-4.1 31.48,-12.7 17.14,-15.7 17.72,-48 0,-63.6 -2.84,-2.5 -5.68,-5 -8.51,-7.5 -0.56,-1.6 -1.11,-3.1 -1.66,-4.6" /><g
         transform="scale(1.1856)"
         id="g40"><path
           id="path42"
           style="fill:#d09181;fill-opacity:1;fill-rule:nonzero;stroke:none"
           d="m 15478,11729.5 c -6,0 -12.3,1.6 -18.4,5.1 -16.6,9.7 -25.5,35.3 -13.6,52 19.9,27.8 39.4,56 58.5,84.3 178.2,264.7 326.1,551 442.9,847.8 124.6,317.2 213.5,648.4 251.9,987.4 17,150.8 28.9,303.1 23.5,454.8 -1.2,35.3 -3.5,70.5 -7.1,105.6 -1.1,9.4 -2.2,18.8 -3.3,28.2 -0.5,3.1 -1.3,9.2 -2.6,17.4 -2.3,15.3 -5,30.5 -8.1,45.6 -6,29.5 -13.5,58.7 -23.2,87.1 -2.6,7.5 -5.4,14.9 -8.2,22.4 -1.2,3 -2.5,6.1 -3.7,9.2 0.9,-2.2 1.2,-3.1 1.2,-3.1 -0.1,0 -2.3,5.3 -2.6,6.1 -5.2,11.6 -10.9,22.9 -17.1,34 -6.5,11.5 -13.6,22.5 -21.3,33.1 -0.7,1 -3.8,4.8 -3.8,4.8 0,0 0.7,-0.8 2.6,-3.1 -1.9,2.3 -3.7,4.6 -5.6,6.8 -3.7,4.4 -7.6,8.7 -11.6,12.8 -6.5,6.8 -13.9,12.6 -20.8,19.1 -1.6,1 -3.1,2.1 -4.6,3.2 -4,2.5 -8.1,4.8 -12.2,7 -1.7,0.9 -3.4,1.6 -5.1,2.4 -9,3.1 -18,6 -27.4,7.7 -0.5,0.1 -1,0.1 -1.5,0.2 -2,0.2 -3.9,0.5 -5.9,0.6 -4.5,0.4 -9.1,0.5 -13.5,0.5 -0.9,0 -1.6,0 -2.4,-0.1 -6.2,0 -12.2,-0.4 -18.4,-1 -0.5,-0.1 -1.1,-0.1 -1.7,-0.2 -2,-0.4 -4,-0.6 -6.1,-0.9 -13.5,-2.5 -26.9,-6 -40.1,-10.4 -7.2,-2.4 -14.2,-5.1 -21.2,-7.9 0.4,0.2 0.5,0.4 0.5,0.4 l -2,-0.9 c -2.2,-0.9 -2.9,-1.2 -2.9,-1.2 0,0 0.8,0.3 1.7,0.6 l -2.2,-0.9 c -3.7,-1.7 -7.4,-3.4 -11.1,-5.1 -35.9,-17.2 -69.7,-38.8 -101.8,-62.3 -5.2,-3.9 -10.5,-7.8 -15.7,-11.8 2.5,1.9 3.4,2.5 3.4,2.5 0,0 -3.9,-2.9 -4.8,-3.6 -2.3,-1.8 -4.6,-3.6 -6.9,-5.5 -9.6,-7.6 -18.9,-15.3 -28.2,-23.2 -21.3,-18.3 -42.1,-37.2 -62.3,-56.6 -42.2,-40.7 -82.4,-83.4 -121,-127.4 3.7,18.8 -7.3,40.3 -26.9,44.8 -3,0.7 -6.2,1 -9.2,1 -16.9,0 -33.1,-10.1 -37.5,-27.6 -10.5,-41.6 -16.1,-84.3 -16.8,-127.2 -28.2,-35.7 -55.7,-72 -82.6,-108.5 -8.2,-11.1 -20.1,-18.5 -32.8,-18.8 4.3,39.4 8.8,78.9 13.2,118.4 12.7,16.7 25.5,33.2 38.5,49.7 85.9,109 177.8,215.5 283.7,305.8 66,56.3 138.5,108.9 221.3,137.3 29.3,10 61.3,16.6 92.9,16.6 22.5,0 44.7,-3.3 65.6,-10.9 78.9,-28.7 127.1,-105.6 157.4,-180.1 23.5,-57.6 36.4,-119.3 44.8,-180.8 10.2,-73.8 14.1,-148.1 14.1,-222.5 0.1,-158.7 -14.8,-317.8 -35.8,-475.1 -23.7,-177.1 -61.2,-352.2 -110.3,-524.1 -48.3,-169 -107.5,-334.7 -175.7,-496.6 -65.9,-156.4 -139.7,-309.4 -222.2,-457.8 -74.3,-133.8 -155.5,-263.8 -244.4,-388.4 -8.1,-11.4 -20.4,-18.7 -33.5,-18.7 m 446.8,2857.4 1.2,0.6 c 0.1,0 0.1,0 0.2,0 0.4,0.2 0.8,0.4 1.3,0.5 -0.6,-0.2 -1.7,-0.6 -2.7,-1.1" /></g><g
         transform="scale(1.16208)"
         id="g44"><path
           id="path46"
           style="fill:#d09181;fill-opacity:1;fill-rule:nonzero;stroke:none"
           d="m 16238.2,13337.9 c -3.2,0 -6.4,0.3 -9.7,1 -20,4.6 -33,28.3 -27,47.7 2.9,9.4 5.2,18.9 7.1,28.7 0.8,3.9 1.4,7.8 2,11.7 0.1,0.6 0.1,1.3 0.2,2 0.2,2.3 0.5,4.5 0.7,6.7 1.9,20.7 2,41.4 1,62.1 -0.5,11 -1.4,21.9 -2.6,32.9 -0.3,3.5 0.3,12.6 -1.8,15.5 0.4,-3.4 0.7,-5.1 0.7,-5.1 0,0 -0.1,0.9 -0.4,2.7 -0.2,1.7 -0.5,3.5 -0.7,5.3 -0.5,2.6 -0.8,5.2 -1.2,7.9 -3.8,23.4 -8.6,46.7 -14.3,69.9 -10.7,43.3 -24.3,86.1 -39.9,128 -4,10.7 -8.1,21.3 -12.4,32 -2,4.8 -4.1,9.7 -6,14.5 0,0.1 -0.1,0.1 -0.1,0.2 -1,2.5 -2.1,5 -3.1,7.5 -8.6,19.5 -17.4,38.8 -26.9,57.9 -17.6,35.7 -36.8,70.8 -58.4,104.3 -9.3,14.5 -19,28.7 -29.5,42.5 0,0 -0.1,0.2 -0.2,0.3 l -2.9,3.7 c -2.5,3 -4.9,5.9 -7.4,8.9 -4.2,5 -8.6,9.9 -13.1,14.8 -10.3,10.9 -22,20.4 -32.9,30.7 -17.4,16.4 -33.1,34.4 -47.8,53.4 -32.1,41.6 -57.1,86.7 -76.5,135.5 -26.6,66.7 -39.1,138.3 -38,209.9 29.9,37.8 60.6,75 92.3,111.2 -0.1,-0.7 -0.3,-1.4 -0.5,-2 -4.3,-17.2 -7.7,-34.6 -10.5,-52.2 -0.1,-0.9 -0.2,-1.5 -0.3,-2.1 -0.1,-0.5 -0.2,-1.3 -0.3,-2.4 -0.4,-3.6 -0.8,-7.3 -1.2,-11 -0.8,-8.5 -1.4,-16.9 -1.9,-25.5 -0.7,-15.5 -0.7,-31.1 -0.1,-46.7 0.4,-7 0.8,-14.1 1.4,-21.1 0.4,-4.6 0.9,-9.3 1.5,-13.9 0.1,-0.9 0.8,-7.1 0.8,-7.1 0,0 0,0.2 0,0.5 4.1,-28.2 10.5,-55.9 19.2,-82.9 4.3,-13.3 9.1,-26.2 14.3,-39.2 -0.6,1.4 -0.8,1.9 -0.8,1.9 0,0 3.2,-7.4 3.7,-8.6 1.4,-2.9 2.7,-5.8 4.1,-8.7 2.7,-5.8 5.6,-11.6 8.5,-17.3 11,-21.1 23.5,-41.4 37.4,-60.8 2.4,-3.3 4.8,-6.5 7.2,-9.7 0.1,-0.2 0.2,-0.4 0.3,-0.5 0.3,-0.3 0.5,-0.7 1,-1.2 3.7,-4.5 7.4,-9.2 11.2,-13.6 7,-8 14.2,-15.8 21.6,-23.3 21.9,-21.8 44.7,-40.9 64,-65.3 49.5,-62.6 88.1,-133.3 120.7,-205.9 36.9,-82.3 67.6,-168.2 85.1,-256.8 15.5,-78 24.2,-163.4 0.4,-240.8 -5.5,-17.5 -20.8,-28.1 -38,-28.1 m -221.7,675.3 v 0 m -104.3,262.4 v 0 0" /></g><g
         transform="scale(1.13307)"
         id="g48"><path
           id="path50"
           style="fill:#c27b6b;fill-opacity:1;fill-rule:nonzero;stroke:none"
           d="m 16201.5,14841.5 c 0.7,44.8 6.6,89.6 17.6,133.1 4.6,18.2 21.6,28.8 39.2,28.8 3.2,0 6.5,-0.3 9.7,-1 20.4,-4.7 32,-27.2 28.1,-46.9 -32.5,-37.1 -64,-75.3 -94.6,-114" /></g><g
         transform="scale(1.13641)"
         id="g52"><path
           id="path54"
           style="fill:#d09181;fill-opacity:1;fill-rule:nonzero;stroke:none"
           d="m 15834.7,12606.6 c -45.7,0 -90.6,10.5 -126.9,36.2 7.5,29.4 15,58.9 22.4,88.4 0.3,-0.3 0.5,-0.6 0.6,-1 0.4,-0.4 2.1,-3.3 3.6,-5.6 0.4,-0.4 1.2,-1.2 2.5,-2.7 3.3,-3.7 6.7,-7.2 10.4,-10.6 0.7,-0.6 4.2,-3.1 5.3,-4.3 v 0 c 3.9,-2.7 8.1,-5.3 12.3,-7.6 2,-1 4.1,-2.1 6.2,-3 -0.1,0 -0.2,0 -0.3,0 0.1,0 0.2,0 0.3,0 0.8,-0.4 1.6,-0.8 2.4,-1.2 1,-0.5 1.6,-0.7 1.9,-0.7 0.5,0 0.1,0.4 -0.7,1 -0.3,0.1 -0.7,0.3 -1.3,0.5 3.6,-1 8.3,-3.6 11.2,-4.4 5.2,-1.6 10.4,-2.8 15.7,-3.9 2.2,-0.4 6.4,-0.3 8.4,-1.4 7.8,-0.8 15.8,-1.1 23.7,-1.1 2.4,0 4.7,0 7.1,0.1 5.3,0.1 10.6,0.4 15.9,0.8 3,0.3 6.1,0.7 9.2,1 1.3,0.2 2.2,0.2 2.7,0.2 1,0 0.9,-0.2 0.2,-0.4 v 0 c 4.2,0.7 10.3,2.5 11.8,2.8 5.7,1.1 11.4,2.3 17.1,3.7 10.9,2.8 21.6,6 32.3,9.7 5,1.7 9.9,3.5 14.8,5.5 0.7,0.3 5.2,1.6 5,1.6 0,0 -0.8,-0.2 -2.4,-0.6 -1.6,-0.4 -2.3,-0.6 -2.4,-0.6 -0.4,0 4,1.3 4.8,1.7 8.5,3.8 16.8,7.8 25,12.2 7.7,4.3 15.3,8.7 22.6,13.6 3.1,2 6.2,4.2 9.3,6.4 0.5,0.4 1,0.7 1.7,1.1 0.8,0.8 1.8,1.6 2.7,2.3 31.8,26.2 62.9,53.4 90.5,84.2 7.5,8.2 14.6,16.8 21.6,25.5 -0.6,-0.8 -1,-1.1 -1,-1.1 -0.1,0 6.1,8.1 7.1,9.4 3,4.3 6,8.7 9,13.1 13.7,20.4 25.6,42 35.7,64.5 0.6,1.3 1.1,2.5 1.7,3.8 0.2,0.6 0.6,1.5 1.3,3.1 1,2.8 2.2,5.6 3.2,8.5 2.4,6.3 4.7,12.7 6.8,19.1 4.1,12.5 7.6,25 10.7,37.7 3.8,15.5 6.9,31.2 9.4,47.1 0.3,2 0.6,4.1 0.9,6.1 -0.1,-0.6 -0.2,-0.7 -0.2,-0.7 0,0 1,7.6 1.1,7.9 0.7,6.6 1.4,13.2 1.9,19.9 5,57.4 2.6,115.4 -4.3,172.7 -0.2,0.9 -0.8,6.3 -1.1,9.1 -0.1,0.7 -0.3,1.7 -0.5,2.9 -0.2,1.8 -0.5,3.7 -0.5,3.7 v 0 c -1,6.7 -1.9,13.4 -3.1,20.1 -1.7,10.8 -3.6,21.6 -5.6,32.2 -3.7,19.4 -7.9,38.6 -12.3,57.7 -23.1,100.5 -51.9,200.1 -87,297 22.7,14 45.8,27.3 69.3,40 0.3,-0.9 0.7,-1.8 1.1,-2.7 6.3,-16.1 11.8,-32.4 17.4,-48.7 11.6,-33.6 22.3,-67.5 32.4,-101.6 17.5,-58.6 33.2,-117.6 46.4,-177.3 25.3,-113.8 38.3,-231.3 22.2,-347.5 -8.6,-62.1 -26.8,-122.5 -56.5,-178 -24.2,-45 -56.4,-86 -92.5,-122.1 -30.6,-30.6 -64.4,-61.4 -100.7,-85.1 -36.5,-23.6 -78.5,-40.7 -120.7,-50.6 -25.6,-6.1 -52.3,-9.6 -78.8,-9.6 m -25.8,79.6 v 0 0 m 54.5,0.7 c 0,0 0,0 0,-0.1 0,0.1 0,0.1 0,0.1 m -110.6,19.7 v 0 0 m -16.1,15.1 v 0 0 0 m 36.7,-25.7 c -0.8,0.3 -1.6,0.4 -2.3,0.4 v 0 0 c 0,0 0.1,0 0.2,0 0.8,0 1.5,-0.2 2.1,-0.4" /></g><g
         transform="scale(1.13771)"
         id="g56"><path
           id="path58"
           style="fill:#d09181;fill-opacity:1;fill-rule:nonzero;stroke:none"
           d="m 15882.8,13532.1 c 2.5,15.3 5,30.5 7.4,45.8 3.8,23.2 7.4,46.4 10.9,69.5 8.1,6.4 16.3,12.6 24.5,18.9 95.8,72.5 200,130.2 309.6,178.9 6.9,3.2 14,4.8 20.8,4.8 13,0 24.9,-6 33.3,-18.9 10.7,-16.6 4.8,-45.7 -14.2,-54.2 -32.8,-14.5 -65.2,-29.7 -97.1,-45.9 -10.7,-5.6 -21.4,-11.2 -32.1,-16.9 -5.3,11.6 -12.6,17.8 -22,26.2 -8.2,7.1 -19,11.3 -29.6,11.3 -9.7,0 -19.2,-3.5 -26.4,-11.3 -13.7,-15 -16.6,-41.3 0,-55.9 2.5,-2.2 5,-4.4 7.4,-6.6 0.5,-1.2 0.9,-2.4 1.4,-3.6 -15.8,-9.7 -31.3,-19.7 -46.7,-30.1 -23.8,-16.1 -47.2,-32.9 -70.1,-50.4 -0.2,-0.2 -1.6,-1.3 -2.7,-2.1 -0.8,-0.6 -1.8,-1.4 -2,-1.5 -3.4,-2.7 -6.7,-5.2 -9.9,-7.9 -5.9,-4.5 -11.6,-9.2 -17.4,-13.8 -12.3,-10 -24.5,-20.2 -36.6,-30.5 -2.7,-2.2 -5.6,-4.3 -8.5,-5.8" /></g><g
         transform="scale(1.12695)"
         id="g60"><path
           id="path62"
           style="fill:#c27b6b;fill-opacity:1;fill-rule:nonzero;stroke:none"
           d="m 16230.1,13804.7 c -0.5,1.2 -0.9,2.4 -1.4,3.6 -2.4,2.2 -4.9,4.5 -7.5,6.7 -16.7,14.7 -13.8,41.3 0,56.4 7.3,7.9 16.9,11.5 26.7,11.5 10.7,0 21.6,-4.3 29.8,-11.5 9.5,-8.4 17,-14.7 22.3,-26.4 -23.7,-12.8 -47,-26.2 -69.9,-40.3" /></g><g
         transform="scale(1.06766)"
         id="g64"><path
           id="path66"
           style="fill:#d29e93;fill-opacity:1;fill-rule:nonzero;stroke:none"
           d="m 16275.4,12131.1 c -3.7,0 -7.4,0.4 -11.3,1.5 -1.1,0.3 -2.1,0.6 -3.2,1.1 5.5,14.8 10.9,29.7 16.2,44.6 l 9.3,-27 c 4.5,-4 9,-7.9 13.6,-11.6 -7,-5.5 -15.5,-8.6 -24.6,-8.6" /></g><g
         transform="scale(1.12201)"
         id="g68"><path
           id="path70"
           style="fill:#d09181;fill-opacity:1;fill-rule:nonzero;stroke:none"
           d="m 15473.2,11545.9 c -18.3,6.7 -32,28.9 -25,48.3 11,30.3 21.9,60.6 32.6,91 85.6,241 165.1,484.4 237.4,729.8 71.3,242 135.6,486.1 191.7,732.1 54.3,238.7 100.7,479.2 137.7,721.3 36.7,240.8 58.6,482.9 83.7,725 26.5,256.6 56.1,512.8 86,769.1 2.5,21.6 16.3,40.1 40.1,40.1 19.9,0 42.6,-18.5 40.1,-40.1 -3.7,-32.3 -7.6,-64.5 -11.3,-96.9 -11.1,-95.7 -22.1,-191.4 -32.9,-287.2 -16.4,-21.4 -32.6,-43.1 -48.7,-64.8 -12.8,-17.4 -2.8,-44.8 14.5,-54.9 6.4,-3.8 13,-5.5 19.4,-5.5 0.3,0 0.5,0 0.8,0 -13.2,-119.4 -25.9,-238.8 -37.9,-358.4 -21.9,-219.6 -45,-438.5 -77.9,-656.5 -22.6,-17.7 -44.8,-35.8 -66.7,-54.3 -16.1,-13.6 -15,-42.9 0,-56.7 8.4,-7.7 18.1,-11.3 27.8,-11.3 6.8,0 13.8,1.8 20.3,5.3 -38.1,-229.1 -84.6,-456.7 -138,-682.9 -11.3,-48 -23,-95.9 -34.9,-143.9 -7.8,11.5 -21.5,19 -35.1,19 -6.6,0 -13.1,-1.7 -19.1,-5.5 -17.6,-11.4 -26.5,-36.1 -14.4,-54.9 12.8,-19.9 28.4,-35.8 45.9,-48.2 -43.2,-167.2 -90,-333.6 -140,-499 -74.5,-246.6 -156.1,-490.9 -243.7,-733 -3.2,-8.7 -8.5,-16.2 -15.3,-21.3 -4.3,3.5 -8.6,7.2 -12.9,11 l -8.8,25.7 c -5.1,-14.2 -10.3,-28.4 -15.4,-42.4" /></g><g
         transform="scale(1.1188)"
         id="g72"><path
           id="path74"
           style="fill:#c27b6b;fill-opacity:1;fill-rule:nonzero;stroke:none"
           d="m 16285.2,14895.9 c -6.5,0 -13.1,1.7 -19.5,5.5 -17.4,10.1 -27.4,37.6 -14.5,55 16.1,21.8 32.4,43.5 48.8,65 -4.7,-41.8 -9.5,-83.7 -14,-125.5 -0.3,0 -0.6,0 -0.8,0" /></g><g
         transform="scale(1.09668)"
         id="g76"><path
           id="path78"
           style="fill:#c27b6b;fill-opacity:1;fill-rule:nonzero;stroke:none"
           d="m 16276.7,13100.7 c -17.8,12.7 -33.8,28.9 -46.9,49.2 -12.4,19.3 -3.3,44.5 14.8,56.2 6.1,3.9 12.7,5.7 19.5,5.7 13.9,0 27.9,-7.7 35.9,-19.5 -7.7,-30.5 -15.4,-61 -23.3,-91.6" /></g><g
         transform="scale(1.10987)"
         id="g80"><path
           id="path82"
           style="fill:#c27b6b;fill-opacity:1;fill-rule:nonzero;stroke:none"
           d="m 16260.6,13866.1 c -9.8,0 -19.5,3.7 -28.1,11.4 -15.1,14 -16.2,43.6 0,57.3 22.2,18.8 44.6,37.1 67.5,54.9 -3.6,-23.7 -7.3,-47.5 -11.2,-71.2 -2.5,-15.6 -5,-31.3 -7.6,-47 -6.6,-3.6 -13.6,-5.4 -20.6,-5.4" /></g><g
         transform="scale(1.05868)"
         id="g84"><path
           id="path86"
           style="fill:#5e565a;fill-opacity:1;fill-rule:nonzero;stroke:none"
           d="m 4322.06,15476.4 c 65.61,72 137.37,138 214.33,197.6 -7.65,-5.9 -15.29,-11.8 -22.94,-17.7 126.64,97.6 266.24,177.1 413.39,239.4 -9.03,-3.8 -18.05,-7.5 -27.08,-11.4 148.67,62.6 304.25,107.9 462.69,137.8 45.75,8.6 91.74,16 137.89,22.2 -10.05,-1.4 -20.09,-2.7 -30.14,-4.1 206.17,27.4 415.18,31.4 622.46,15.2 58.6,-4.7 117.06,-10.9 175.33,-18.7 -10.05,1.4 -20.09,2.7 -30.14,4 185.15,-24.9 371.76,-61.9 544.75,-134.3 -9.03,3.8 -18.05,7.6 -27.08,11.4 77.61,-32.8 152.05,-73.1 219.09,-124.3 -7.65,5.9 -15.3,11.8 -22.94,17.7 46.35,-35.8 88.48,-76.6 124.5,-122.9 -5.91,7.6 -11.81,15.3 -17.71,22.9 21.49,-27.9 40.56,-57.6 57.05,-88.8 27.7,-52.6 105.16,-72.9 155.08,-40.7 53.43,34.4 70.29,98.9 40.66,155.1 -112.48,213.2 -327.22,341.5 -548.11,418.8 -102.76,36 -209.02,60.7 -316.02,80.2 -116.47,21.2 -234.23,36.7 -352.23,46.1 -229.03,18.1 -458.35,9.8 -685.62,-23.4 -223.57,-32.6 -440.68,-95.3 -646.43,-188.8 -201.91,-91.7 -389.46,-218.9 -546.53,-375.7 -18.63,-18.7 -36.8,-37.8 -54.56,-57.3 -20.16,-22.1 -33.2,-49.7 -33.2,-80.1 0,-27.8 12.36,-61 33.2,-80.2 43.54,-39.9 117.63,-46.7 160.31,0" /></g><g
         transform="scale(1.05742)"
         id="g88"><path
           id="path90"
           style="fill:#5e565a;fill-opacity:1;fill-rule:nonzero;stroke:none"
           d="m 4094.47,15672.2 c 52.27,57.4 109.5,109.7 170.58,157.4 5.19,4.1 -8.14,-6.1 0.15,0.1 1.67,1.3 3.35,2.6 5.02,3.9 3.36,2.5 6.72,5 10.11,7.5 8.44,6.3 16.96,12.5 25.55,18.6 15.49,11 31.18,21.6 47.07,32 32.83,21.5 66.47,41.7 100.8,60.7 34.16,18.8 68.99,36.4 104.36,52.8 18.06,8.4 36.28,16.5 54.6,24.3 1.86,0.9 7.52,3.2 -1.22,-0.4 2,0.8 3.99,1.7 5.99,2.4 4.49,1.9 8.99,3.8 13.5,5.6 9.56,3.9 19.12,7.7 28.73,11.4 74.74,29 151.26,53.4 228.78,73.8 79.73,20.9 160.53,37.6 241.91,50.8 20.7,3.4 41.45,6.4 62.23,9.3 3.61,0.5 15.14,2 5.57,0.8 5.65,0.8 11.28,1.5 16.93,2.2 10.17,1.3 20.34,2.5 30.53,3.8 41.99,4.8 84.1,8.9 126.26,12 167.42,12.6 335.75,12.5 503.29,2 82.65,-5.1 165.15,-12.9 247.34,-23.1 9.37,-1.1 18.75,-2.3 28.12,-3.5 2.66,-0.4 18.16,-2.4 6.81,-1 5.47,-0.6 10.95,-1.4 16.42,-2.1 19.61,-2.8 39.19,-5.7 58.76,-8.6 39.63,-6.1 79.18,-12.8 118.64,-20 18.87,-3.5 37.72,-7.1 56.55,-10.8 21.78,-4.2 46.98,6.3 52.36,29.7 4.8,21.2 -6.38,47.8 -29.73,52.4 -162.59,32.1 -327.19,54.8 -492.41,67.6 -169.43,13.4 -339.83,16.2 -509.53,6.3 -170.1,-9.9 -340.09,-32.3 -505.98,-71.6 -160.14,-37.9 -316.98,-92.4 -463.74,-167.2 -141.35,-72.1 -273.27,-164.8 -385.19,-277.5 -13.41,-13.5 -26.51,-27.3 -39.34,-41.4 -15,-16.5 -17.47,-44.2 0,-60.2 16.35,-15 44.16,-17.5 60.18,0" /></g><g
         transform="scale(1.05293)"
         id="g92"><path
           id="path94"
           style="fill:#5e565a;fill-opacity:1;fill-rule:nonzero;stroke:none"
           d="m 5411.37,16088 c -446.38,-212.1 -473.8,-738.9 -181.54,-1113.5 292.26,-374.7 971.75,-430 1347.59,-120.4 283.38,233.5 389.84,646.4 199.08,945.6 -291.93,457.9 -918.75,500.3 -1365.13,288.3" /></g><g
         transform="scale(1.05056)"
         id="g96"><path
           id="path98"
           style="fill:#5e565a;fill-opacity:1;fill-rule:nonzero;stroke:none"
           d="m 5401.95,16161.2 c -83.3,-39.8 -160.67,-94.4 -222.81,-163 -58.99,-65.1 -103.86,-140.8 -133.28,-223.5 -57.86,-162.7 -48.7,-345.6 6.85,-507.5 59.54,-173.5 167.26,-330.9 316.62,-438.6 145.69,-105.2 323.11,-161.4 500.69,-179.2 177.72,-17.9 363.05,5 528.25,74.1 85.39,35.8 164.4,82.6 234.93,142.8 76.48,65.2 141.5,145.1 190.66,232.8 96.17,171.4 134.68,378 85.79,570.2 -47.33,186.2 -180.37,344.9 -337.63,450.6 -150.95,101.5 -330.56,153.7 -510.94,167 -179.59,13.1 -363.8,-13.2 -533.34,-73.5 -42.76,-15.2 -84.78,-32.8 -125.79,-52.2 -20.31,-9.6 -27.16,-40.2 -15.36,-58.5 13.46,-21 36.88,-25.7 58.59,-15.4 9.14,4.3 18.33,8.5 27.56,12.6 4.64,2.1 9.28,4.1 13.95,6.1 2.05,1 11.37,5.5 0.98,0.5 2.72,1.3 5.68,2.4 8.47,3.5 19.85,8.1 39.93,15.7 60.17,22.9 40.87,14.2 82.47,26.5 124.57,36.7 21.19,5.1 42.51,9.7 63.91,13.7 21.21,4 43.13,8.9 64.67,10.6 -1.17,-0.1 -9.95,-1.3 -2.08,-0.3 3.08,0.5 6.19,0.8 9.29,1.2 5.17,0.6 10.34,1.3 15.52,1.8 10.87,1.3 21.74,2.3 32.65,3.2 21.79,1.9 43.62,3.2 65.46,3.9 43.09,1.5 86.25,0.7 129.25,-2.4 21.67,-1.5 43.26,-3.8 64.84,-6.5 5.2,-0.6 3.03,-0.3 0.64,0 -2.5,0.4 -5.24,0.7 0.25,-0.1 2.04,-0.3 4.08,-0.5 6.13,-0.8 5.1,-0.8 10.2,-1.6 15.29,-2.3 11.2,-1.8 22.35,-3.8 33.49,-5.9 42.3,-8.1 84.12,-18.6 125.13,-31.8 20.41,-6.6 40.6,-13.8 60.53,-21.6 4.74,-1.9 9.46,-3.8 14.19,-5.8 2.06,-0.8 7.63,-2.8 -1.78,0.8 2.85,-1.1 5.63,-2.4 8.42,-3.7 9.8,-4.3 19.54,-8.6 29.18,-13.3 38.21,-18.3 75.15,-39.1 110.36,-62.6 8.54,-5.8 16.96,-11.6 25.26,-17.6 4.17,-3 8.31,-6 12.42,-9.1 2.45,-1.8 5.06,-3.6 7.38,-5.6 -8.46,7.2 -0.41,0.3 1.09,-0.9 17.08,-13.4 33.64,-27.6 49.62,-42.3 32.67,-30.2 62.56,-62.9 90.27,-97.7 4.84,-6.1 0.08,-0.1 -0.75,1 1.98,-2.6 3.94,-5.2 5.9,-7.7 3.26,-4.4 6.46,-8.8 9.64,-13.2 7.05,-9.8 13.89,-19.7 20.52,-29.8 12.85,-19.5 24.78,-39.5 35.44,-60.2 5,-9.8 9.75,-19.7 14.23,-29.8 0.89,-2 1.77,-4 2.63,-6 2.24,-5.2 1.42,-3 0.54,-0.9 -0.88,2.1 -1.81,4.2 0.22,-1 2.19,-5.5 4.43,-11.2 6.53,-16.8 7.96,-21.3 14.73,-43 20.29,-65.1 5.4,-21.5 9.46,-43.2 12.79,-65.2 0.84,-5.4 0.56,-3 0.24,-0.7 -0.32,2.4 -0.7,4.8 -0.06,-0.7 0.25,-2.1 0.53,-4.3 0.76,-6.4 0.61,-5.4 1.15,-10.7 1.63,-16.2 1.04,-11.8 1.76,-23.7 2.18,-35.6 0.8,-22.7 0.44,-45.6 -0.99,-68.2 -0.7,-11 -1.64,-21.8 -2.82,-32.6 -0.16,-1.5 -3.16,-15.1 -1.96,-16.3 0.21,1.7 0.42,3.3 0.64,4.9 -0.3,-2.2 -0.62,-4.3 -0.94,-6.5 -0.49,-3.2 -1,-6.4 -1.53,-9.7 -7.49,-45.8 -19.23,-90.8 -34.8,-134.5 -3.74,-10.5 -7.7,-20.8 -11.87,-31.2 -0.83,-2.1 -1.69,-4.1 -2.53,-6.2 -2.15,-5.2 -1.22,-3.1 -0.34,-1 0.87,2 1.7,4.1 -0.58,-1.1 -2.7,-6.2 -5.41,-12.4 -8.24,-18.4 -9.67,-20.9 -20.24,-41.5 -31.65,-61.4 -11.75,-20.8 -24.4,-40.9 -37.9,-60.5 -6.45,-9.3 -13.1,-18.6 -19.94,-27.7 -1.7,-2.3 -3.44,-4.6 -5.16,-6.8 5.58,7.3 0.76,1 -0.67,-0.8 -3.9,-4.9 -7.85,-9.8 -11.87,-14.7 -30.83,-37.2 -64.94,-71.7 -101.88,-103 -7.87,-6.6 -15.76,-13.9 -24.29,-19.7 9.98,6.8 -3.22,-2.3 -5.59,-4.1 -4.79,-3.6 -9.64,-7.1 -14.5,-10.5 -17.12,-12.1 -34.71,-23.5 -52.7,-34.2 -18.07,-10.7 -36.57,-20.8 -55.41,-30.3 -9,-4.4 -18.09,-8.7 -27.25,-12.9 -4.59,-2.1 -9.19,-4.2 -13.81,-6.2 -1.86,-0.8 -3.71,-1.6 -5.57,-2.4 -4.33,-1.9 -3.72,-1.6 1.86,0.8 -1.87,-0.8 -3.74,-1.5 -5.61,-2.3 -39.12,-16 -79.32,-29.3 -120.19,-40.1 -20.35,-5.3 -40.89,-10.1 -61.56,-14.2 -10.11,-2 -20.25,-3.8 -30.41,-5.5 -5.1,-0.8 -10.2,-1.7 -15.3,-2.4 -3.07,-0.5 -6.14,-1 -9.2,-1.4 -2.09,-0.3 -12.91,-2.1 -0.91,-0.2 -42.85,-6.7 -87,-8.8 -130.32,-9.5 -43.63,-0.6 -87.31,1.3 -130.73,5.7 -10.32,1.1 -20.61,2.3 -30.91,3.6 -7.83,1 1,-0.2 2.16,-0.2 -3.06,0.1 -6.2,0.8 -9.23,1.3 -6.15,0.8 -12.28,1.8 -18.4,2.8 -20.88,3.5 -41.64,7.5 -62.29,12.1 -41.42,9.3 -82.29,21.1 -122.28,35.2 -9.54,3.5 -19.02,7.1 -28.47,10.7 -4.71,1.9 -9.4,3.7 -14.08,5.7 -2.03,0.8 -11.83,4.6 -0.94,0.3 -2.79,1.1 -5.57,2.4 -8.33,3.6 -19.29,8.4 -38.31,17.4 -56.99,27.2 -36.88,19.1 -72.45,40.8 -106.15,65.2 -3.98,2.8 -7.92,5.7 -11.84,8.6 -1.57,1.3 -3.12,2.4 -4.68,3.5 -4.08,3.1 -2.29,1.7 -0.42,0.2 1.87,-1.4 3.82,-2.8 -0.2,0.4 -8.38,6.7 -16.75,13.4 -24.89,20.4 -15.52,13.3 -30.49,27.2 -44.85,41.7 -13.97,14.2 -27.35,28.8 -40.07,44.1 -3.1,3.8 -6.17,7.6 -9.18,11.3 -1.53,1.9 -3.01,3.8 -4.52,5.7 5.97,-7.5 1.19,-1.5 -0.27,0.4 -6.89,9 -13.63,18.2 -20.19,27.5 -25.78,36.4 -49.04,74.6 -69.46,114.4 -9.88,19.1 -20.31,38.9 -27.83,59.2 4.18,-11.3 -1.89,4.7 -2.78,6.8 -1.91,4.8 -3.78,9.7 -5.62,14.4 -4.01,10.5 -7.81,21.1 -11.42,31.7 -13.52,39.8 -24.15,80.6 -31.54,122.1 -1.73,9.8 -3.23,19.5 -4.64,29.2 -1.16,7.9 0,-1.9 0.35,-2.6 -1.04,2 -0.82,6.4 -1.07,8.7 -0.69,5.9 -1.31,11.7 -1.87,17.5 -1.86,19.8 -2.96,39.7 -3.26,59.5 -0.29,19.7 0.19,39.3 1.52,58.9 0.66,10 1.55,20 2.64,29.9 0.26,2.4 0.53,4.7 0.82,7 0.13,1.1 1.76,10.3 0.32,2.8 -1.45,-7.4 0.26,1.8 0.41,2.7 0.41,2.9 0.84,5.7 1.3,8.5 6.21,39 15.9,77.5 29.14,114.7 3.15,8.9 6.5,17.6 10.06,26.4 0.34,0.8 0.7,1.7 1.06,2.6 1.78,4.2 1.44,3.5 -1.04,-2.4 -0.1,0.8 2.06,4.6 2.25,5.1 2.28,5.2 4.62,10.3 7.05,15.4 8.5,17.9 17.86,35.4 28.08,52.5 10.32,17.1 21.51,33.9 33.5,50 1.14,1.5 2.32,3 3.48,4.5 3.03,4.1 1.51,2.2 0.05,0.3 -1.45,-1.8 -2.84,-3.7 0.35,0.2 3.05,3.8 6.06,7.6 9.15,11.3 6.88,8.3 13.96,16.4 21.25,24.3 13.85,14.9 28.44,29.2 43.69,42.8 7.59,6.8 15.33,13.4 23.22,19.7 2.01,1.7 4.03,3.3 6.02,4.9 4.3,3.4 2.35,2 0.51,0.6 -1.55,-1.3 -3.05,-2.4 -0.62,-0.7 4.61,3.3 9.12,6.9 13.75,10.3 36.1,26.1 74.73,48.5 114.91,67.7 20.28,9.7 27.19,40.3 15.37,58.6 -13.42,20.8 -36.92,25.7 -58.6,15.3" /></g><path
         id="path100"
         style="fill:#d09181;fill-opacity:1;fill-rule:nonzero;stroke:none"
         d="m 6299.1,15317.9 c -95.66,0 -191.31,7.3 -286.18,21.3 -168.04,24.8 -331.39,73 -487.03,140.7 -160.32,69.8 -309.38,162.2 -445.22,272.1 -19.54,15.8 -15.06,47.3 0,63.7 8.25,9 18.71,12.8 29.38,12.8 12.13,0 24.54,-5 34.26,-12.8 8.6,-7 17.22,-13.9 25.92,-20.7 0.29,-0.2 1.06,-0.8 1.89,-1.4 0.84,-0.7 3.74,-2.9 4.38,-3.4 4.11,-3.2 8.23,-6.3 12.37,-9.4 67.42,-50.8 138.22,-97.1 211.83,-138.4 36.82,-20.7 74.34,-40.1 112.46,-58.3 18.11,-8.6 36.35,-17 54.71,-25 5.67,-2.5 11.36,-4.9 17.05,-7.4 -0.07,0.1 -0.15,0.1 -0.23,0.1 0.09,0 0.17,0 0.25,-0.1 0.05,0 0.09,0 0.14,0 0.89,-0.4 2.99,-1.3 3.66,-1.5 0.96,-0.4 1.92,-0.8 2.87,-1.2 9.22,-3.9 18.47,-7.6 27.74,-11.3 76.02,-30 154.02,-55.2 233.31,-75.1 3.23,-0.8 6.46,-1.6 9.69,-2.4 97.67,-37.1 201.04,-59.8 304.45,-70.2 40.29,-4.1 80.97,-6.1 121.71,-6.1 126.9,0 254.55,19.9 374.14,61.4 43.77,9.3 87.2,20.2 130.16,32.6 38.48,11.2 76.59,23.7 114.24,37.5 19.41,7.1 38.72,14.5 57.89,22.3 5.07,2.1 10.13,4.2 15.19,6.3 0.25,0.1 0.47,0.2 0.66,0.3 1.81,0.7 3.62,1.5 5.43,2.3 8.97,3.8 17.9,7.8 26.79,11.8 73.85,33.2 145.38,71.5 213.88,114.6 35.14,22.2 69.47,45.6 102.92,70.2 8.03,6 16.01,11.9 23.94,18 0.96,0.7 1.91,1.5 2.87,2.2 0.73,0.6 2.21,1.7 2.86,2.2 3.94,3.1 7.87,6.2 11.8,9.3 16.71,13.3 33.17,26.9 49.39,40.8 9.74,8.3 21.09,12.7 32.41,12.7 10.93,0 21.84,-4.1 31.23,-12.7 16.96,-15.6 17.95,-48.3 0,-63.7 -16.22,-13.8 -32.68,-27.5 -49.39,-40.7 -134.41,-106.8 -282.16,-193.2 -440.99,-258.3 -154.52,-63.3 -317.22,-103.4 -482.97,-122.8 -70.45,-8.3 -141.15,-12.3 -211.86,-12.3 m -1124.27,473.5 v 0 0" /><path
         id="path102"
         style="fill:#92655d;fill-opacity:1;fill-rule:nonzero;stroke:none"
         d="m 6288.51,15383.9 c -40.74,0 -81.42,2 -121.71,6.1 -103.41,10.4 -206.78,33.1 -304.45,70.2 36.16,-8.9 72.59,-16.7 109.21,-23.4 20.5,-3.8 41.05,-7.2 61.66,-10.3 5.44,-0.8 10.89,-1.6 16.36,-2.4 0.28,0 0.79,-0.1 1.4,-0.1 1.27,-0.2 3.99,-0.6 4.81,-0.7 9.69,-1.3 19.41,-2.4 29.12,-3.6 70.27,-8 140.97,-12 211.69,-12 9.7,0 19.41,0 29.12,0.2 40.68,0.6 81.33,2.6 121.87,5.9 19.34,1.6 38.66,3.5 57.96,5.7 9.84,1.2 19.67,2.4 29.5,3.6 -0.6,0 -0.88,-0.1 -0.9,-0.1 -0.12,0 7.58,1.1 9.94,1.4 4.8,0.7 9.61,1.4 14.39,2.1 34.9,5.3 69.64,11.6 104.17,18.8 -119.59,-41.5 -247.24,-61.4 -374.14,-61.4 m -233.48,39.5 v 0 0" /><path
         id="path104"
         style="fill:#d09181;fill-opacity:1;fill-rule:nonzero;stroke:none"
         d="m 5588.95,15550.1 c 0,0 -0.08,0 -0.21,0.1 -1.27,0.5 -2.53,1 -3.8,1.5 -0.01,0 -0.01,0 -0.02,0 3.03,-1.2 4.04,-1.6 4.03,-1.6" /><path
         id="path106"
         style="fill:#d09181;fill-opacity:1;fill-rule:nonzero;stroke:none"
         d="m 9856.42,13234.6 c -24.05,0 -42.4,22.1 -43.23,45.1 -0.28,7.4 -0.5,14.9 -0.72,22.4 -2.84,102.2 -3.06,204.5 -3.51,306.8 -0.64,149.5 -0.59,299 -0.34,448.4 0.26,159.1 0.79,318.2 1.47,477.2 0.56,131.3 1.24,262.7 1.98,394 0.37,65.2 0.84,130.3 1.12,195.5 0.11,25.2 20.53,43.9 45,45 0.56,0 1.12,0.1 1.67,0.1 23.5,0 43.42,-22.1 43.32,-45.1 -0.01,-3.1 -0.02,-6.3 -0.03,-9.4 -0.41,-75 -0.88,-150 -1.3,-225 -0.75,-136.2 -1.43,-272.5 -1.98,-408.7 -0.65,-159.9 -1.14,-319.8 -1.33,-479.7 -0.17,-146.2 -0.16,-292.5 0.66,-438.8 0.51,-94.2 0.56,-188.6 3.98,-282.7 0.93,-25.2 -21.35,-44 -44.99,-45.1 -0.59,0 -1.18,0 -1.77,0" /><path
         id="path108"
         style="fill:#d09181;fill-opacity:1;fill-rule:nonzero;stroke:none"
         d="m 9867.36,12164.4 c -54.02,0 -108.01,3.3 -161.44,10 -186.69,23.3 -367.91,84.1 -526.84,185.8 -21.21,13.5 -27.91,39.2 -16.14,61.5 7.42,14.1 23.71,22.3 39.63,22.3 7.76,0 15.42,-2 21.93,-6.1 42.87,-27.4 87.46,-52 133.53,-73.6 10.62,-5 21.31,-9.8 32.07,-14.5 0.69,-0.3 7.2,-3 7.15,-3 -0.02,0 -0.97,0.4 -3.51,1.5 2.41,-1 4.81,-2 7.22,-3 6.03,-2.5 12.07,-4.9 18.14,-7.3 23.05,-9 46.38,-17.2 69.93,-24.8 42.19,-13.6 85.11,-24.8 128.51,-33.8 21.71,-4.5 43.54,-8.4 65.45,-11.8 6.46,-1 12.91,-1.9 19.37,-2.8 -2.52,0.4 -3.45,0.5 -3.39,0.5 0.17,0 8.92,-1.2 10.83,-1.4 10.37,-1.3 20.75,-2.4 31.14,-3.4 41.5,-4 83.18,-6 124.86,-6 47.74,0 95.48,2.6 142.9,7.9 5.9,0.6 11.7,1.3 17.5,2.1 1.7,0.2 3.3,0.4 4.9,0.6 -1.3,-0.2 -1.8,-0.2 -1.8,-0.2 0,0 3.2,0.4 4.3,0.5 11,1.6 22,3.3 32.9,5.1 21.9,3.7 43.7,7.9 65.3,12.7 43.2,9.6 86,21.5 127.9,35.7 21,7.1 41.8,14.8 62.3,23.1 3.6,1.4 7.3,2.9 10.9,4.4 0.5,0.2 2.3,0.9 3.7,1.5 1.3,0.6 3,1.3 3.5,1.5 2.4,1.1 4.8,2.1 7.2,3.2 10.1,4.4 20.2,9 30.2,13.8 40.1,19 79,40.3 116.7,63.8 6.8,4.2 14.2,6.2 21.6,6.2 15.7,0 31.1,-8.8 39.9,-22.4 13.5,-20.8 3.9,-49.1 -16.1,-61.6 -89.5,-55.7 -186.8,-99.4 -287.6,-130.5 -124,-38.2 -254.45,-57.5 -384.64,-57.5" /><g
         transform="scale(1.16417)"
         id="g110"><path
           id="path112"
           style="fill:#5e565a;fill-opacity:1;fill-rule:nonzero;stroke:none"
           d="m 3038.09,15645.2 c 340.11,110.9 554.03,233 894.12,343.8 41.44,13.5 189.05,61 231.93,68.8 64.21,11.6 450.81,-33.6 515.38,-43 712.96,-103.1 960.78,-129 1606.3,-249.1 369.36,-68.7 557.22,-81.8 816.03,-137.4 l 8.84,17.5 c -134.01,63.7 -272.83,117.3 -414.88,160.2 -174.58,52.6 -353.59,88.9 -532.3,125.2 -562.27,113.9 -1124.6,227.9 -1689.16,330 -108.33,19.6 -217.9,38.8 -327.81,32.8 -278.97,-15.3 -521.12,-188.1 -745.71,-354.3 -126.09,-93.2 -252.17,-186.5 -378.26,-279.8 l 15.52,-14.7" /></g><g
         transform="scale(1.16724)"
         id="g114"><path
           id="path116"
           style="fill:#5e565a;fill-opacity:1;fill-rule:nonzero;stroke:none"
           d="m 3040.34,15566.9 c 313.9,102.7 609.47,252.5 924.1,353.4 55.02,17.6 110.17,35.3 166.02,50.2 9.33,2.5 18.71,4.7 28.09,6.9 7.95,1.9 5.48,0.5 -0.08,0.3 3.13,0.1 6.29,0.6 9.42,0.7 16.05,1 32.21,0.5 48.25,-0.1 105.2,-4 210.33,-16 314.89,-27.6 40.15,-4.5 80.28,-9.3 120.37,-14.4 9.69,-1.2 -6.03,0.9 -0.58,0.1 3.37,-0.6 6.77,-1 10.15,-1.5 24.75,-3.5 49.52,-7.1 74.27,-10.6 43.95,-6.4 87.9,-12.6 131.86,-18.9 146.03,-20.7 292.12,-41.1 438.13,-61.9 265.79,-38 530.9,-79.8 795.14,-127.3 163.49,-29.5 326.67,-60 490.92,-85.1 128.02,-19.5 256.38,-37.3 383.67,-61.3 32.73,-6.2 65.38,-12.8 97.95,-19.8 15.94,-3.5 35.62,2 43.54,17.7 2.94,5.8 5.88,11.7 8.82,17.5 8.76,17.3 5.89,43.3 -13.84,52.7 -127.5,60.5 -259.03,112.5 -393.73,154.6 -138.06,43.3 -279.18,75.7 -420.69,105.3 -289.48,60.7 -579.68,118.1 -869.77,175.6 -289.88,57.6 -580.04,113.8 -870.76,167 -143.76,26.3 -291.06,59.6 -438.05,48.1 -127.85,-10 -249.7,-51.1 -363.8,-108.4 -114.41,-57.5 -220.22,-130.6 -323.48,-205.8 -116.61,-85.1 -232.17,-171.6 -348.18,-257.4 -29.27,-21.6 -58.55,-43.3 -87.81,-65 -19.11,-14.1 -27.5,-42 -7.81,-60.5 5.17,-4.8 10.33,-9.7 15.49,-14.6 36.08,-34 90.71,20.4 54.52,54.5 -5.16,4.9 -10.33,9.7 -15.48,14.6 -2.61,-20.2 -5.2,-40.3 -7.81,-60.5 117.09,86.6 234.17,173.2 351.25,259.9 103.14,76.2 206.38,153 317.03,218.3 105.4,62.1 217.72,113.4 338.37,137.1 136.16,26.7 272.86,5.6 407.65,-18.7 288.19,-52 575.78,-107.3 863.06,-164 285.73,-56.5 571.19,-114.3 856.61,-172.2 276.39,-56.2 550.64,-119.2 810.4,-231.7 31.61,-13.7 62.95,-28.1 94.08,-42.8 -4.61,17.6 -9.22,35.2 -13.84,52.8 -2.92,-5.8 -5.86,-11.7 -8.8,-17.5 14.5,5.9 29.02,11.8 43.54,17.7 -126.46,27.1 -254.15,47 -382,66.2 -159.95,23.9 -319.33,50.2 -478.39,79.6 -272.91,50.3 -546.6,95.6 -821.24,135.4 -140.67,20.4 -281.47,39.9 -422.21,59.8 -130.72,18.5 -261.22,39.2 -392.32,54.8 -105.25,12.6 -210.8,24 -316.56,31.6 -38.24,2.6 -77.52,6.4 -115.88,3.7 -46.02,-3.3 -91.83,-20.7 -135.6,-34.1 -140.72,-43 -279.31,-91.7 -415.65,-147.1 -154.07,-62.7 -306.02,-130.4 -462.29,-187.5 -43.55,-15.9 -87.37,-31.1 -131.43,-45.5 -46.96,-15.3 -26.86,-89.9 20.49,-74.3" /></g><path
         id="path118"
         style="fill:#d09181;fill-opacity:1;fill-rule:nonzero;stroke:none"
         d="m 8604.31,9681.4 c -20.19,0 -37.54,12 -44.23,32.6 -7.17,22.2 8.36,50.5 31.43,55.4 23.69,5 47.39,10 71.08,15 191.99,40.5 383.96,81 575.95,121.5 79.28,16.7 161.27,40.4 243.05,40.4 18.5,0 37.01,-1.2 55.46,-4 40.96,-6.2 79.54,-22 117.28,-38.5 17.67,-7.7 35.13,-15.8 52.7,-23.7 4.83,-2.1 9.66,-4.3 14.51,-6.4 0.62,-0.3 3.12,-1.3 4.51,-1.9 0.51,-0.2 0.92,-0.4 1.05,-0.5 8.44,-3.4 16.9,-6.7 25.48,-9.7 18.04,-6.4 36.39,-11.4 55.23,-14.7 0.13,-0.1 0.25,-0.1 0.37,-0.1 2.13,-0.2 4.25,-0.5 6.39,-0.7 4.41,-0.3 8.81,-0.5 13.22,-0.6 1.28,0 2.56,-0.1 3.84,-0.1 3.17,0 6.34,0.1 9.5,0.3 1.18,0 5.9,0.4 8.64,0.6 0.65,0.1 1.58,0.3 2.53,0.4 1.93,0.3 3.98,0.6 4.06,0.6 v 0 c 1.94,0.4 3.89,0.8 5.82,1.2 4.5,1 8.96,2.2 13.39,3.5 7.87,2.3 15.58,5 23.2,8 -0.01,0 -0.01,0 -0.02,0 -0.05,0 2.72,1.2 4.87,2.2 1.82,0.8 3.62,1.7 5.42,2.5 4.22,2 8.4,4.1 12.55,6.2 8.96,4.6 17.8,9.4 26.6,14.3 36.33,20.3 72.21,41.2 111.61,55.1 33.3,11.7 69.3,16.8 104.8,16.8 10.9,0 21.7,-0.5 32.5,-1.4 91.5,-7.8 178.1,-40.2 265.8,-64.9 69,-19.5 138.5,-37 208.7,-51.3 33.4,-6.8 66.9,-13 100.5,-18.5 17,-2.8 33.9,-5.4 50.9,-7.9 9,-1.3 18,-2.6 27,-3.8 4.8,-0.7 9.7,-1.4 14.6,-2 -2.7,0.3 -3.8,0.5 -3.7,0.5 0,0 4,-0.6 6.6,-0.9 83.2,-10.9 166.7,-19.5 250.3,-27.9 25.1,-2.5 43.8,-18.6 45,-45 0.9,-21.6 -19.6,-45.1 -41.9,-45.1 -1,0 -2.1,0 -3.1,0.1 -22.8,2.3 -45.5,4.6 -68.3,7 -148.4,15.4 -296.8,33.1 -442.7,65.4 -73.1,16.2 -145.6,35.4 -217.4,56.9 -43.1,13 -86,26.8 -129.9,36.8 -11.3,2.6 -22.5,4.9 -33.9,6.9 -5,0.8 -10,1.7 -15,2.4 1.1,-0.2 1.5,-0.2 1.3,-0.2 -0.5,0 -8.7,0.9 -10.3,1.1 -12.1,1.1 -24.2,1.8 -36.3,1.8 -9.5,0 -19.1,-0.4 -28.6,-1.3 0,0 -1.9,-0.2 -3.9,-0.5 -1.5,-0.1 -3,-0.3 -3.8,-0.4 -1.8,-0.3 -4.2,-0.7 -4.7,-0.8 -5.2,-0.9 -10.3,-2 -15.4,-3.2 -9.8,-2.4 -19.5,-5.3 -28.9,-8.8 -2.5,-0.9 -5,-1.9 -7.5,-2.8 -0.2,-0.1 -0.3,-0.2 -0.4,-0.2 -4.3,-1.9 -8.5,-3.9 -12.7,-5.9 -8.5,-4.1 -16.8,-8.5 -25.1,-12.9 -37.15,-20.2 -73.01,-41.8 -112.41,-57.4 -28.59,-11.2 -59.31,-17.3 -90.05,-17.3 -9.53,0 -19.06,0.6 -28.53,1.8 -42.96,5.4 -82.11,19.3 -121.76,36.2 -18.28,7.9 -36.29,16.2 -54.41,24.4 -4.85,2.2 -9.71,4.4 -14.58,6.5 -1.46,0.7 -7.96,3.5 -9.65,4.2 -0.73,0.3 -1.4,0.6 -1.57,0.7 -2.45,0.9 -4.9,1.9 -7.36,2.9 -4.28,1.7 -8.6,3.4 -12.92,5 -17.76,6.5 -35.93,12.1 -54.51,15.9 -3.17,0.6 -6.43,1 -9.57,1.7 -0.44,0.1 -0.78,0.2 -1.06,0.3 -4.85,0.6 -9.75,0.9 -14.61,1.2 -6.03,0.4 -12.07,0.5 -18.1,0.5 -5.32,0 -10.65,-0.1 -15.96,-0.3 -25.68,-1.2 -37.85,-3.2 -63.39,-8 -24.34,-4.6 -48.53,-9.9 -72.77,-15 -47.38,-10 -94.77,-20 -142.15,-30 -191.16,-40.3 -382.34,-80.7 -573.5,-121 -3.77,-0.8 -7.5,-1.2 -11.13,-1.2 m 1000.74,146.4 v 0 0 m 203.17,19 c 1.66,-0.3 2.45,-0.4 2.6,-0.4 0.22,0 -0.86,0.2 -2.6,0.4 m -1.16,0.1 c 0.24,0 0.48,-0.1 0.73,-0.1 -0.24,0 -0.48,0.1 -0.73,0.1 m 264.94,2.2 c -2.7,-1.1 -3.6,-1.5 -3.6,-1.5 0,0 2.5,1 3.6,1.5 m -553.76,5.8 c 0.02,0 0.05,0 0.06,0 -0.02,0 -0.04,0 -0.06,0 m 383.4,6.3 c -0.31,-0.1 -0.58,-0.2 -0.84,-0.3 0.28,0.1 0.56,0.2 0.84,0.3 m -174.67,10.2 v 0 0" /><path
         id="path120"
         style="fill:#d09181;fill-opacity:1;fill-rule:nonzero;stroke:none"
         d="m 9757.53,8614.9 c -88.83,0 -177.71,4.6 -266.19,13.8 -219.79,22.8 -436.49,71.5 -644.62,145.8 -207.56,74.1 -406.56,171.9 -591.57,291.6 -20.47,13.2 -28.92,39.7 -16.15,61.6 8.05,13.7 24.09,22.3 39.94,22.3 7.55,0 15.05,-1.9 21.62,-6.2 22.75,-14.7 45.67,-29.1 68.81,-43.2 183.15,-111.3 375.2,-199.7 578,-265.4 202.92,-65.8 412.14,-108 621.88,-123.4 63.63,-4.7 127.48,-7.1 191.31,-7.1 153.45,0 306.74,13.8 456.64,43 205.7,39.9 404.7,108.3 599.8,183.7 196.6,76.1 396,170.6 557.8,308.1 9.6,8.2 21.5,12.9 33.2,12.9 10.8,0 21.6,-4 30.4,-12.9 16.3,-16.2 18.6,-47.9 0,-63.6 -22.3,-19 -45.2,-37.2 -68.5,-54.8 -177.8,-134.6 -385.2,-223.5 -592.9,-300.7 -201.4,-74.8 -405.9,-140.5 -618.6,-174.1 -132.7,-20.9 -266.75,-31.4 -400.87,-31.4" /><path
         id="path122"
         style="fill:#d09181;fill-opacity:1;fill-rule:nonzero;stroke:none"
         d="m 8160.96,9607.7 c -36.23,0 -72.48,2.1 -108.76,7.6 -81.12,12.4 -159.4,45.1 -220.32,100.8 -18.56,17 -15.89,46.3 0,63.7 8.16,8.8 19.18,12.8 30.37,12.8 12.04,0 24.26,-4.6 33.27,-12.8 4.06,-3.8 8.21,-7.3 12.38,-10.9 0.94,-0.8 1.64,-1.4 2.15,-1.9 0.46,-0.3 1.02,-0.7 1.68,-1.2 7.74,-5.6 15.65,-11 23.84,-15.9 7.01,-4.3 14.19,-8.3 21.5,-12 4.27,-2.2 8.58,-4.3 12.95,-6.3 1.87,-0.8 3.73,-1.7 5.63,-2.5 -0.45,0.2 -0.85,0.3 -1.2,0.5 0.51,-0.2 1.12,-0.5 1.84,-0.8 32.64,-12.8 66.44,-21.5 101.07,-26.9 -0.65,0.1 -0.89,0.2 -0.84,0.2 0.24,0 6.68,-0.9 8.14,-1.1 6.44,-0.7 12.9,-1.3 19.37,-1.8 9.69,-0.8 19.39,-1.3 29.1,-1.7 8.97,-0.3 17.94,-0.4 26.92,-0.4 12.09,0 24.18,0.2 36.27,0.7 43.85,1.7 87.53,6.1 131.17,10.5 1.18,0.1 2.34,0.2 3.49,0.2 23.33,0 40.56,-23.9 41.52,-45.2 1.16,-26 -21.65,-42.6 -45.01,-45 -55.58,-5.6 -111.04,-10.6 -166.53,-10.6 m -80.74,93.8 v 0 0 m -1.74,0.3 c 0.07,0 0.15,-0.1 0.23,-0.1 -0.08,0.1 -0.16,0.1 -0.23,0.1" /><path
         id="path124"
         style="fill:#d09181;fill-opacity:1;fill-rule:nonzero;stroke:none"
         d="m 11534.5,9627.7 c -55.4,0 -110.9,5 -166.4,10.6 -25.2,2.5 -43.9,18.6 -45,45 -1,21.6 19.5,45.2 41.8,45.2 1.1,0 2.1,-0.1 3.2,-0.2 43.6,-4.4 87.3,-8.8 131.1,-10.5 12.1,-0.5 24.2,-0.7 36.2,-0.7 9,0 18,0.1 27,0.4 10.5,0.4 21,1 31.5,1.9 5.7,0.4 11.3,1 17,1.6 0.7,0.1 7.8,1.1 8.1,1.1 0,0 -0.2,0 -0.7,-0.1 34.6,5.5 68.3,14 101,26.8 2.5,1.1 3.8,1.6 3.8,1.6 0,0 -1.1,-0.4 -3.2,-1.3 2.5,1.1 5,2.2 7.5,3.4 3.7,1.7 7.4,3.5 11.1,5.4 7.9,4.1 15.7,8.4 23.2,13.1 7.6,4.6 14.9,9.6 22.1,14.8 0.9,0.6 1.5,1.1 2,1.4 0.4,0.4 1,0.9 1.8,1.7 4.2,3.6 8.4,7.1 12.4,10.9 9.3,8.5 20.6,12.7 31.9,12.7 11.2,0 22.5,-4.2 31.8,-12.7 17.3,-16 17.4,-47.8 0,-63.7 -60.9,-55.7 -139.2,-88.4 -220.4,-100.8 -36.3,-5.5 -72.5,-7.6 -108.8,-7.6" /><g
         transform="scale(1.04127)"
         id="g126"><path
           id="path128"
           style="fill:#5e565a;fill-opacity:1;fill-rule:nonzero;stroke:none"
           d="m 4304.83,15938.6 c -8.24,0.1 -16.47,0.4 -24.69,1.1 -4.11,0.3 -8.21,0.6 -12.31,1.1 -1.89,0.2 -4.27,0.3 -6.15,0.8 11.46,-2.9 1.75,-0.2 -0.78,0.2 -16.96,2.8 -33.73,6.7 -50.18,11.6 -8.07,2.4 -16.07,5.1 -23.99,8.1 -4.49,1.6 -8.93,3.3 -13.37,5.2 -2.03,0.7 -7.43,3.3 1.46,-0.7 -2.44,1.1 -4.91,2.1 -7.36,3.3 -16.35,7.3 -32.25,15.8 -47.63,25 -16.34,9.8 -31.97,20.7 -47.2,32.1 7.57,-5.7 -2.54,2 -4.69,3.8 -3.57,2.9 -7.11,5.9 -10.62,8.9 -7.51,6.4 -14.87,13 -22.05,19.8 -14.27,13.5 -27.87,27.7 -40.79,42.5 -6.41,7.4 -12.65,14.9 -18.72,22.5 -1.53,1.9 -3.05,3.8 -4.56,5.7 5.24,-6.7 0.17,-0.1 -1.12,1.7 -3.35,4.4 -6.65,9 -9.9,13.5 -28.48,40.1 -52.53,83.1 -72.63,127.9 -9.29,20.8 -40.97,27.3 -59.13,15.6 -21.41,-13.8 -25.43,-37 -15.51,-59.2 70.26,-156.7 195.21,-298.5 361.3,-354.7 41.87,-14.2 86.43,-21.6 130.62,-22.2 22.62,-0.3 44.25,20.1 43.21,43.2 -1.05,23.6 -18.97,42.8 -43.21,43.2" /></g><g
         transform="scale(1.04664)"
         id="g130"><path
           id="path132"
           style="fill:#5e565a;fill-opacity:1;fill-rule:nonzero;stroke:none"
           d="m 4216.39,16228.4 c 65.92,-110.1 170.11,-206.8 299.33,-232.6 21.99,-4.4 47.48,6.3 52.89,30 4.86,21.4 -6.45,48.1 -30.03,52.9 -12.91,2.6 -25.66,5.8 -38.17,10 -6.33,2.1 -12.57,4.4 -18.79,6.7 -10.56,4.1 8.21,-3.8 -2.14,0.9 -3.08,1.4 -6.17,2.8 -9.23,4.2 -12.39,5.9 -24.46,12.5 -36.15,19.8 -5.96,3.6 -11.82,7.5 -17.58,11.4 -2.91,2.2 -5.79,4.2 -8.65,6.3 -0.94,0.6 -10.32,8 -2.68,1.9 -23.15,18.4 -44.58,38.8 -64.02,61.1 -5.04,5.8 -9.87,11.8 -14.71,17.7 -4.95,6.1 1.24,-1.8 -1.58,2.1 -2.3,3.1 -4.69,6.2 -6.97,9.4 -9.71,13.5 -18.74,27.4 -27.27,41.7 -11.55,19.3 -39.17,28.1 -58.83,15.4 -19.41,-12.5 -27.79,-38.1 -15.42,-58.9" /></g><g
         transform="scale(1.05712)"
         id="g134"><path
           id="path136"
           style="fill:#5e565a;fill-opacity:1;fill-rule:nonzero;stroke:none"
           d="m 4533.36,16229.2 c 61.22,-104.3 149.8,-192.3 263.44,-236.9 20.78,-8.2 47.63,9 52.37,29.8 5.57,24.4 -7.49,43.6 -29.73,52.3 -1.42,0.6 -11.9,5.1 -2.3,0.8 -2.58,1.2 -5.16,2.3 -7.73,3.4 -5.68,2.7 -11.3,5.4 -16.85,8.3 -10.77,5.6 -21.27,11.6 -31.49,18.1 -10.46,6.8 -20.62,13.8 -30.47,21.4 7.6,-5.9 -1.88,1.6 -2.69,2.3 -2.34,1.9 -4.66,3.8 -6.97,5.8 -5.12,4.3 -10.15,8.8 -15.09,13.3 -19.45,17.9 -37.47,37.3 -54.04,57.9 -0.35,0.4 -8.05,10.3 -2.93,3.6 -1.97,2.5 -3.92,5.2 -5.86,7.8 -4.29,5.8 -8.48,11.8 -12.56,17.7 -8.3,12.2 -16.12,24.7 -23.59,37.4 -11.26,19.2 -38.88,27.8 -58.23,15.3 -19.35,-12.5 -27.34,-37.7 -15.28,-58.3" /></g><path
         id="path138"
         style="fill:#d29e93;fill-opacity:1;fill-rule:nonzero;stroke:none"
         d="m 13613.2,6927.7 -0.4,51.3 c 1.1,0.9 2.2,1.7 3.4,2.6 8.5,-16.1 9.5,-37.4 -3,-53.9 m -7503.45,1.4 c -14.29,17.3 -12.99,40.5 -3.22,57.3 0.03,0 0.03,0 0.07,-0.1 l 3.15,-57.2" /><path
         id="path140"
         style="fill:#d09181;fill-opacity:1;fill-rule:nonzero;stroke:none"
         d="m 9868.82,5346.7 c -194.81,0 -389.8,19.1 -580.6,55.8 -510.9,98 -1005.96,284.1 -1477.35,500.9 -599.18,275.6 -1168.91,617.2 -1692.85,1017.8 -3.19,2.4 -5.94,5.1 -8.27,7.9 l -3.15,57.2 c -0.04,0.1 -0.04,0.1 -0.07,0.1 7.3,12.5 19.33,21.4 33.12,21.4 7.57,0 15.67,-2.7 23.8,-8.9 67.75,-51.8 136.18,-102.7 205.42,-152.4 519.67,-373.7 1080.71,-692.1 1668.3,-946 449.94,-194.5 924.55,-361 1410.81,-434.7 134.04,-20.3 270.5,-30.1 407.14,-30.1 187.98,0 376.28,18.6 559.18,53.7 506.2,97.3 997.5,280.7 1464.4,496.1 594.2,274.1 1159.4,613.2 1679.5,1010.5 8.2,6.2 16.3,8.8 23.8,8.8 14.5,0 27,-9.7 34.2,-23.2 -1.2,-0.9 -2.3,-1.7 -3.4,-2.6 l 0.4,-51.3 c -2.6,-3.4 -5.8,-6.6 -9.5,-9.5 -67.9,-51.8 -136.5,-102.7 -205.9,-152.5 -525.1,-377.2 -1092.4,-698 -1686.7,-952.7 -454.7,-195 -932.7,-364 -1424,-436.1 -138.3,-20.3 -278.2,-30.2 -418.28,-30.2" /><g
         transform="scale(1.06516)"
         id="g142"><path
           id="path144"
           style="fill:#d29e93;fill-opacity:1;fill-rule:nonzero;stroke:none"
           d="m 2203.51,12165.1 c -7.19,0 -13.96,2 -19.93,5.5 3.57,3 7.12,6 10.64,9.2 l 17.22,5.2 c 2.1,-5.7 4.21,-11.5 6.31,-17.2 -1.04,-0.5 -2.1,-0.8 -3.18,-1.2 -3.75,-1 -7.46,-1.5 -11.06,-1.5 m -817.82,4086.6 -17.09,12.5 c -4.07,8.1 -8.31,16.2 -12.7,24.3 6.88,6.1 15.6,10.4 24.16,11.5 1.87,-16.1 3.76,-32.2 5.63,-48.3" /></g><g
         transform="scale(1.06518)"
         id="g146"><path
           id="path148"
           style="fill:#d09181;fill-opacity:1;fill-rule:nonzero;stroke:none"
           d="m 2217.7,12167.5 c -2.1,5.7 -4.21,11.5 -6.31,17.2 l -17.22,-5.2 c -3.52,-3.2 -7.07,-6.2 -10.64,-9.2 -9.49,5.4 -16.99,14.5 -20.98,25.6 -11.76,32.5 -23.42,65.1 -34.96,97.7 -92.11,259.8 -177.48,522.1 -254.89,786.8 -39.58,135.3 -77.09,271.2 -112.3,407.7 18.42,13 34.81,29.8 48.33,50.7 12.01,18.6 4.4,47.5 -15.15,57.8 -6.92,3.7 -14.17,5.4 -21.23,5.4 -14.01,0 -27.28,-6.9 -35.91,-19.6 -23.49,94.2 -45.88,188.6 -67.08,283.3 -43.62,194.8 -82.24,390.8 -115.02,587.8 7.05,-3.8 14.94,-5.9 22.71,-5.9 10.2,0 20.21,3.6 27.93,12.1 14.42,15.6 18.01,44.5 0,59.7 -23.08,19.5 -46.49,38.6 -70.31,57 -3.18,20.8 -6.31,41.5 -9.36,62.3 -38.5,262.1 -61.41,525.6 -89.03,789 -7.64,72.7 -15.49,145.4 -23.52,218 0.35,0 0.7,0 1.05,0 6.7,0 13.58,1.8 20.26,5.8 18.09,10.5 28.78,39.3 15.16,57.7 -16.89,22.9 -33.93,45.8 -51.2,68.5 -18.06,160.1 -36.73,320.1 -55.36,480.1 -1.38,11.8 4.41,22.7 13.2,30.4 4.39,-8.2 8.63,-16.3 12.7,-24.3 l 17.09,-12.5 c -1.87,16 -3.76,32.2 -5.63,48.2 1.64,0.3 3.27,0.4 4.89,0.4 24.71,0 39.6,-19.6 42.23,-42.2 4.04,-34.8 8.08,-69.4 12.12,-104.2 31.96,-274.5 63.62,-549.1 91.65,-824 26.29,-258 51.15,-515.4 91.62,-771.7 41.04,-260 92.42,-518.4 152.29,-774.6 61.41,-262.9 131.74,-523.7 209.52,-782.2 79.21,-263.3 166.22,-524.2 259.68,-782.7 7.39,-20.5 -7.15,-43.8 -26.33,-50.9" /></g><g
         transform="scale(1.03106)"
         id="g150"><path
           id="path152"
           style="fill:#c27b6b;fill-opacity:1;fill-rule:nonzero;stroke:none"
           d="m 1460.61,16163.6 c -0.37,0 -0.73,0 -1.08,0 -5.02,45.5 -10.1,90.9 -15.22,136.4 17.83,-23.5 35.45,-47.1 52.89,-70.8 14.07,-19 3.03,-48.8 -15.66,-59.6 -6.91,-4.1 -14.01,-6 -20.93,-6" /></g><path
         id="path154"
         style="fill:#c27b6b;fill-opacity:1;fill-rule:nonzero;stroke:none"
         d="m 1875.15,14367.3 c -8.64,33.5 -17.14,67 -25.52,100.5 9.19,13.5 23.33,20.8 38.25,20.8 7.52,0 15.24,-1.8 22.61,-5.7 20.83,-11 28.93,-41.8 16.14,-61.6 -14.4,-22.3 -31.86,-40.1 -51.48,-54" /><path
         id="path156"
         style="fill:#c27b6b;fill-opacity:1;fill-rule:nonzero;stroke:none"
         d="m 1679.85,15389.4 c -8.28,0 -16.68,2.2 -24.19,6.2 -7.25,43.6 -14.24,87.3 -20.95,131 25.37,-19.7 50.31,-40 74.89,-60.8 19.18,-16.2 15.36,-46.9 0,-63.6 -8.22,-9 -18.89,-12.8 -29.75,-12.8" /><g
         transform="scale(1.05865)"
         id="g158"><path
           id="path160"
           style="fill:#5e565a;fill-opacity:1;fill-rule:nonzero;stroke:none"
           d="m 14470.9,15637.2 c -149.8,164.1 -332.6,299.7 -531,399.4 -200.8,101.1 -416.6,170.5 -637.8,209.7 -225.5,40 -455.3,53.7 -684.1,41.4 -118.5,-6.4 -236.7,-19.7 -354,-38.1 -107.6,-16.9 -214.8,-38.3 -319.3,-69.3 -110.3,-32.7 -220,-75.7 -319,-134.9 -104.3,-62.4 -195,-143.1 -264.7,-242.9 -14.7,-20.9 -27.8,-42.7 -39.7,-65.3 -14.2,-26.6 -19.6,-57.7 -11.4,-87.3 7.2,-26.3 27.6,-54.8 52,-67.7 52.4,-27.7 125.6,-15.4 155.1,40.6 16.5,31.3 35.5,60.9 57.1,88.9 -6,-7.6 -11.8,-15.3 -17.8,-23 36.1,46.3 78.2,87.1 124.5,122.9 -7.5,-5.8 -15.2,-11.8 -22.8,-17.6 66.9,51.2 141.4,91.5 219,124.3 -9.1,-3.8 -18,-7.7 -27.1,-11.4 173.1,72.4 359.6,109.3 544.8,134.3 -10.1,-1.3 -20.1,-2.7 -30.1,-4.1 206.1,27.6 415.1,35.7 622.7,21.4 58.5,-4.2 116.9,-10 175.1,-17.8 -10.1,1.3 -20.1,2.7 -30.1,4.1 160.7,-21.8 319.5,-57.6 472.8,-110.9 43,-15 85.6,-31.4 127.8,-49.1 -9.1,3.8 -18.1,7.6 -27.1,11.4 147.1,-62.4 286.7,-141.8 413.3,-239.5 -7.5,6 -15.2,11.8 -22.8,17.8 76.8,-59.6 148.6,-125.6 214.3,-197.6 40,-43.9 120.1,-43.7 160.3,0 43.1,47 42.7,113.4 0,160.3" /></g><g
         transform="scale(1.05736)"
         id="g162"><path
           id="path164"
           style="fill:#5e565a;fill-opacity:1;fill-rule:nonzero;stroke:none"
           d="m 14620.9,15733.3 c -106.9,117.4 -235,215.1 -373.7,292 -143.3,79.3 -298.1,137.9 -456.3,179.6 -164.3,43.3 -333.3,68.9 -502.5,82 -169.7,13.1 -340.4,13 -510.2,2.2 -166.6,-10.5 -332.8,-31.2 -497.1,-61.2 -18.8,-3.5 -37.7,-7.1 -56.5,-10.7 -21.9,-4.4 -36.4,-31.6 -29.7,-52.4 7.5,-23.3 28.8,-34.4 52.3,-29.7 78.2,15.4 156.7,28.5 235.7,39.5 4.9,0.7 9.8,1.5 14.7,2 -9.6,-1.1 1.3,0.2 5.1,0.6 11.1,1.6 22.2,2.9 33.1,4.3 20,2.5 40,4.7 60,6.9 41.5,4.4 83,8.3 124.6,11.5 166.6,13 334.2,15.8 501,6.4 42.4,-2.5 84.6,-5.7 126.8,-9.8 20.4,-1.9 40.9,-4 61.3,-6.4 10.1,-1.2 20.3,-2.5 30.5,-3.8 5.1,-0.5 10.2,-1.3 15.3,-2 6.9,-0.8 -10.6,1.5 0.5,0 2.8,-0.3 5.5,-0.7 8.4,-1.2 82,-11.3 163.6,-26.3 244.2,-45.4 78.4,-18.4 155.9,-40.8 232,-67.8 18.9,-6.7 37.8,-13.7 56.6,-21.1 8.6,-3.3 17.1,-6.7 25.6,-10.1 4.6,-1.9 9.1,-3.7 13.6,-5.6 2.5,-1 5,-2.1 7.4,-3.1 -6.6,2.7 -2.2,0.9 1.8,-0.8 36.1,-15.4 71.6,-31.9 106.6,-49.7 69.4,-35.4 136.4,-75.5 199.9,-120.7 7.2,-5.2 14.5,-10.5 21.7,-15.8 3.8,-2.8 7.6,-5.7 11.4,-8.5 1.7,-1.3 3.4,-2.6 5,-3.9 8.6,-6.5 -7.1,5.6 1.4,-1 14.9,-11.6 29.6,-23.6 44.1,-35.8 29.7,-25.1 58.4,-51.6 85.9,-79.2 13.4,-13.5 26.5,-27.3 39.4,-41.4 15,-16.6 45.1,-16.5 60.1,0 16.2,17.5 16.1,42.5 0,60.1" /></g><g
         transform="scale(1.05293)"
         id="g166"><path
           id="path168"
           style="fill:#5e565a;fill-opacity:1;fill-rule:nonzero;stroke:none"
           d="m 13322.7,16088 c 446.4,-212.1 473.7,-738.9 181.5,-1113.5 -292.3,-374.7 -971.8,-430 -1347.6,-120.4 -283.4,233.5 -389.9,646.4 -199.1,945.6 292,457.9 918.8,500.3 1365.2,288.3" /></g><g
         transform="scale(1.05026)"
         id="g170"><path
           id="path172"
           style="fill:#5e565a;fill-opacity:1;fill-rule:nonzero;stroke:none"
           d="m 13334.9,16091.9 c 41.2,-19.7 80.7,-42.7 117.4,-69.6 4.2,-3.1 8.5,-6 12.5,-9.4 -9.1,7.5 3.7,-2.9 5.9,-4.7 8.7,-7.1 17.1,-14.3 25.4,-21.8 15.5,-14 30.3,-28.8 44.3,-44.2 6.6,-7.3 12.9,-14.7 19.1,-22.2 2.9,-3.4 7,-7.3 9.2,-11.3 -4.8,8.6 -2.5,3.2 -0.6,0.6 2,-2.6 4.1,-5.4 6,-8.1 11.9,-16.1 22.9,-32.9 33,-50.2 9.8,-16.7 18.9,-33.8 27,-51.4 2,-4.2 3.9,-8.6 5.8,-12.9 1.7,-3.7 5,-6 -0.4,1.2 1.2,-1.7 1.9,-4.5 2.7,-6.5 3.9,-9.6 7.5,-19.3 10.9,-29.1 12.8,-36.8 22.2,-74.9 28.2,-113.6 0.4,-2.7 0.9,-5.6 1.2,-8.3 0.9,-5.8 -1.7,-0.1 -0.3,2.9 -1.3,-2.7 1.3,-10.9 1.7,-14.2 1.1,-10.4 2,-20.8 2.6,-31.3 1.3,-20.1 1.7,-40.3 1.3,-60.4 -0.4,-20.3 -1.7,-40.7 -3.7,-61 -0.6,-4.9 -1.2,-9.7 -1.7,-14.6 -0.1,-1.1 -0.1,-4.5 -0.7,-5.8 0.2,1.8 0.5,3.7 0.8,5.5 -0.3,-1.9 -0.6,-3.9 -0.9,-5.8 -1.5,-10.7 -3.3,-21.5 -5.3,-32.1 -7.7,-41 -18.4,-81.3 -31.9,-120.7 -3.4,-9.6 -6.9,-19.2 -10.5,-28.7 -2.1,-5.4 -4.2,-10.6 -6.3,-15.8 -0.8,-2 -1.5,-3.9 -2.4,-5.8 -1.5,-3.8 -0.8,-2.2 -0.2,-0.6 0.8,1.7 1.6,3.5 -0.8,-1.9 -8.7,-19.5 -17.6,-38.9 -27.4,-57.8 -20.6,-39.6 -44,-77.8 -70,-114.3 -6.3,-8.7 -12.8,-17.5 -19.4,-26.1 -3.3,-4.4 -1.9,-2.6 -0.5,-0.9 1.3,1.7 2.6,3.4 -0.5,-0.5 -1.2,-1.5 -2.4,-3 -3.6,-4.6 -3.6,-4.4 -7.3,-9 -11.1,-13.4 -13.1,-15.6 -26.9,-30.6 -41.4,-44.9 -14.5,-14.4 -29.6,-28.2 -45.2,-41.5 -7.3,-6.1 -14.7,-13.2 -22.8,-18.3 10.1,6.4 -2.9,-2.3 -5.3,-4 -4.8,-3.6 -9.5,-7.1 -14.3,-10.4 -33.5,-23.9 -68.8,-45.1 -105.4,-63.9 -18.3,-9.3 -36.8,-18.1 -55.8,-26.3 -2.1,-0.9 -11.1,-5.6 -0.8,-0.4 -1.8,-0.8 -3.8,-1.6 -5.7,-2.2 -4.6,-2 -9.3,-3.9 -14,-5.8 -10.4,-4 -20.9,-7.9 -31.4,-11.6 -40.5,-14.4 -81.9,-26.1 -123.9,-35.3 -21.2,-4.7 -42.5,-8.7 -63.9,-12 -5.2,-0.8 -10.3,-1.6 -15.5,-2.4 -1.9,-0.3 -4,-0.7 -6,-0.8 11.9,0.6 1.5,0.2 -1,-0.1 -11.3,-1.5 -22.7,-2.8 -34,-3.8 -42.9,-4.2 -86.2,-5.8 -129.3,-5.1 -21.8,0.4 -43.6,1.4 -65.3,3.2 -10.4,0.7 -20.8,1.7 -31,2.7 -5.2,0.6 -10.3,1.2 -15.5,1.8 -2.5,0.3 -5.1,0.6 -7.7,1 -5.6,0.7 -7.8,0.5 -0.9,0.1 -21.3,1.1 -43.3,6.6 -64.1,10.8 -21.2,4.3 -42.2,9.2 -63,14.8 -20.7,5.5 -41.3,11.7 -61.6,18.6 -19.9,6.7 -41.1,13.1 -59.8,22.5 10.7,-5.4 -3.9,1.6 -6.4,2.9 -4.7,2 -9.3,4.1 -13.8,6.2 -10.1,4.6 -20.1,9.4 -29.9,14.4 -18.8,9.6 -37.3,19.8 -55.3,30.6 -17.5,10.7 -34.5,21.9 -51.2,33.7 -4,3 -8.1,5.9 -12,8.9 -2,1.5 -4,2.9 -6,4.4 -4.3,3.2 -2.5,1.8 -0.6,0.3 1.6,-1.2 3.3,-2.4 1,-0.5 -9,7.4 -18.2,14.5 -27.1,22.1 -36.3,31.1 -69.8,65.5 -100.1,102.3 -3.6,4.5 -7.2,8.9 -10.8,13.3 -3.6,4.6 -2.2,2.8 -0.9,1.1 1.3,-1.7 2.7,-3.5 -0.8,1.1 -1.3,1.8 -2.7,3.6 -4.1,5.5 -7.5,10 -14.7,20.2 -21.8,30.5 -13.3,19.7 -25.9,39.9 -37.5,60.7 -11.5,20.5 -22.2,41.7 -32,63.2 -2.3,5 -4.5,10.2 -6.7,15.3 4.3,-9.8 -2.4,5.9 -3.4,8.4 -4.5,11.3 -8.8,22.8 -12.8,34.4 -15,43.3 -26.3,87.9 -33.4,133.1 -0.4,2.6 -0.8,5.4 -1.2,8.1 -0.9,5.7 -0.7,3.3 -0.3,0.9 0.3,-2.1 0.6,-4.1 0.2,-0.9 -0.7,5.4 -1.3,10.8 -1.9,16.3 -1.2,11.3 -2.2,22.7 -2.8,34.1 -1.4,22.8 -1.6,45.5 -0.7,68.3 0.5,10.9 1.1,21.6 2.1,32.4 0.5,5.4 0.9,10.7 1.6,16.2 0.4,3.1 0.5,6.4 1.1,9.6 -2.2,-11.4 -0.1,-0.6 0.3,1.4 3.3,22.5 7.8,44.8 13.5,66.7 5.8,22 12.7,43.8 20.8,65.1 2,5 4,10.1 6.1,15.1 -4.3,-10.4 2.6,5.8 3.5,7.9 5,11 10.3,21.9 15.9,32.6 11,20.7 23.1,40.6 36.1,60 6.1,9 12.3,18.1 18.8,26.9 3.1,4.4 6.3,8.8 9.7,13.1 1.2,1.7 2.6,3.4 3.9,5.1 -6.9,-8.9 2,2.5 3.2,4.1 27.1,33.8 56.8,65.5 88.7,94.7 16,14.8 32.6,28.7 49.7,42.2 4.2,3.4 2.3,1.9 0.4,0.5 -1.8,-1.3 -3.5,-2.8 0.7,0.4 1.6,1.2 3.3,2.5 5,3.7 4.1,3 8.2,6.1 12.3,9.1 9.2,6.6 18.5,13 27.9,19.3 35.7,23.6 73.2,44.6 112,62.9 9.2,4.3 18.5,8.6 27.8,12.6 0.6,0.3 9.9,4.2 3.3,1.4 -6.5,-2.7 2.8,1.1 3.4,1.4 5.7,2.3 11.3,4.6 17,6.8 20,7.8 40.3,14.8 60.8,21.3 40.5,12.8 81.9,23 123.8,30.8 10.1,1.9 20.3,3.6 30.5,5.2 5.1,0.8 10.2,1.5 15.3,2.3 2.5,0.4 5.1,0.8 7.7,1.1 -11.8,-1.2 -1.9,-0.3 0.9,0 21.5,2.8 43.1,4.9 64.9,6.4 43.5,3 87.2,3.6 130.8,2 21.9,-0.8 43.7,-2.2 65.5,-4.2 10.4,-0.8 20.7,-2 31.1,-3.1 5.2,-0.6 10.3,-1.3 15.5,-1.8 2.6,-0.4 5.2,-0.7 7.8,-1.1 3.2,-0.4 2,-0.3 -3.7,0.5 2,-0.3 4.1,-0.6 6.2,-0.9 85,-12 168.9,-32.5 250,-61.2 19.7,-6.9 39.3,-14.5 58.6,-22.4 2.4,-0.9 4.8,-1.9 7.1,-2.9 -9.5,4.5 -2.9,1.2 -0.4,0.2 4.6,-2 9.3,-4.1 14,-6.1 9.6,-4.3 19.3,-8.8 28.9,-13.3 20.2,-9.6 47.2,-6.3 58.6,15.4 10.1,19 6.3,48.4 -15.4,58.5 -165.6,78.5 -346.8,122.4 -530,128.3 -182.3,5.9 -366.9,-27.4 -531.6,-107.2 -81.7,-39.5 -157.7,-91.7 -223.9,-153.8 -69,-64.5 -130.7,-141.9 -172.9,-226.7 -88,-176.6 -90.8,-384.8 -24.7,-569 66.7,-186 196.3,-347.7 366.1,-449.6 155.6,-93.4 339,-137.3 519.6,-139.9 181.4,-2.5 365.4,36.8 526.5,121 76.9,40.3 149,92.2 209.9,154.3 63.9,65.1 116.8,142.9 157.9,224.2 80.7,159.7 117,340.7 88.3,518.4 -28.2,173.9 -126,326.8 -267.7,430.4 -36.8,27 -76.3,50 -117.5,69.6 -20.1,9.8 -47.2,6.3 -58.6,-15.3 -10.1,-19.1 -6.2,-48.3 15.4,-58.6" /></g><path
         id="path174"
         style="fill:#d09181;fill-opacity:1;fill-rule:nonzero;stroke:none"
         d="m 13431.6,15317.9 c -95.3,0 -190.5,7.2 -284.9,21.3 -165.1,24.6 -325.7,72.4 -477.9,140.7 -154.9,69.4 -298.6,161.8 -427.6,272.1 -19.1,16.4 -15.4,46.9 0,63.7 8.2,8.9 19,12.8 29.9,12.8 12,0 24.4,-4.8 33.8,-12.8 15.7,-13.5 31.7,-26.7 47.9,-39.6 4.4,-3.5 8.8,-7 13.3,-10.5 0.7,-0.5 1.2,-1 1.7,-1.3 1.3,-1 2.7,-2.1 4,-3.1 7.9,-6.1 15.9,-12 23.9,-18 16.5,-12.1 33.3,-24 50.2,-35.5 33.7,-23 68.1,-44.8 103.3,-65.3 35.5,-20.7 71.7,-40.2 108.6,-58.3 17.6,-8.6 35.2,-17 53.1,-25 10,-4.5 20,-8.9 30.1,-13.2 1.4,-0.6 2.9,-1.3 4.3,-1.9 0.5,-0.2 1.1,-0.4 1.8,-0.7 4.5,-1.9 9,-3.7 13.5,-5.6 74.3,-30.2 150.6,-55.2 228.3,-75.1 24,-6.1 48.1,-11.8 72.4,-16.9 116,-40.1 239.5,-59.8 361.7,-61.6 5.9,0 11.7,-0.1 17.5,-0.1 143.1,0 287.2,24.8 421.1,75.8 23,5.6 45.8,11.7 68.5,18.1 39.3,11.3 78.2,23.7 116.7,37.5 19.9,7.1 39.7,14.6 59.4,22.3 9.8,3.9 19.7,7.9 29.5,12 0.4,0.1 1.5,0.6 2.5,1 1.3,0.6 3.4,1.5 4,1.7 4.6,2 9.2,4 13.8,6 76.2,33.2 150.3,71.6 221.5,114.6 36.6,22.2 72.5,45.6 107.6,70.2 16.9,11.9 33.5,24 50,36.4 5.2,3.9 10.4,7.8 15.5,11.8 0.5,0.3 1.4,1.1 2.2,1.7 1.3,1 2.7,2.1 4,3.1 8.2,6.4 16.4,12.9 24.4,19.5 10.1,8.2 21.5,12.7 32.9,12.7 10.7,0 21.3,-4 30.8,-12.7 16.6,-15.3 18.3,-48.8 0,-63.7 -19.2,-15.4 -38.5,-30.6 -58.2,-45.4 -138.2,-104.8 -290.4,-189.3 -451.4,-253.6 -157.5,-62.8 -322.7,-103.3 -491,-122.8 -70.7,-8.3 -141.8,-12.3 -212.7,-12.3 m -683.9,225.1 v 0 0 m -378.4,220.1 v 0 0 m -3.5,2.7 c 0.1,-0.1 0.2,-0.2 0.3,-0.2 -0.1,0 -0.2,0.1 -0.3,0.2" /><path
         id="path176"
         style="fill:#92655d;fill-opacity:1;fill-rule:nonzero;stroke:none"
         d="m 13440.5,15384 c -5.8,0 -11.6,0.1 -17.5,0.1 -122.2,1.8 -245.7,21.5 -361.7,61.6 14.9,-3.2 29.8,-6.1 44.8,-8.9 20.3,-3.8 40.6,-7.2 61,-10.3 5.4,-0.8 10.8,-1.6 16.2,-2.4 1.9,-0.2 3.9,-0.5 5.8,-0.8 0.1,0 0.1,0 0.2,0 9.6,-1.2 19.3,-2.4 28.9,-3.6 70,-8 140.5,-12 210.9,-12 9.7,0 19.4,0 29.1,0.2 40.8,0.6 81.6,2.6 122.3,5.9 19.5,1.6 38.9,3.5 58.3,5.7 10.6,1.2 21.3,2.5 31.9,3.9 -0.1,0 -0.1,0 -0.2,0 0.1,0 0.1,0 0.2,0 0.3,0.1 0.6,0.1 0.9,0.1 0.8,0.1 2.5,0.4 3.4,0.5 1,0.1 1.9,0.3 2.8,0.4 4.8,0.7 9.7,1.4 14.5,2.1 56.9,8.5 113.5,19.6 169.3,33.3 -133.9,-51 -278,-75.8 -421.1,-75.8 m -248.2,38.9 v 0 0 m 478.4,0.5 c 3.7,0.6 5,0.7 5.1,0.7 0,0 -0.3,0 -0.8,-0.1 -1.4,-0.2 -2.9,-0.4 -4.3,-0.6 v 0" /><path
         id="path178"
         style="fill:#d09181;fill-opacity:1;fill-rule:nonzero;stroke:none"
         d="m 14550.7,15791.4 c 2.4,1.9 3.2,2.6 3.2,2.6 0,0 -0.5,-0.4 -1.1,-0.9 -0.7,-0.6 -1.4,-1.1 -2.1,-1.7" /><g
         transform="scale(1.16417)"
         id="g180"><path
           id="path182"
           style="fill:#5e565a;fill-opacity:1;fill-rule:nonzero;stroke:none"
           d="m 13905.8,15645.2 c -340.2,110.9 -554.1,233 -894.1,343.8 -41.5,13.5 -189.1,61 -232,68.8 -64.2,11.6 -450.8,-33.6 -515.4,-43 -712.9,-103.1 -960.7,-129 -1606.3,-249.1 -369.3,-68.7 -557.2,-81.8 -815.98,-137.4 l -8.85,17.5 c 134,63.7 272.83,117.3 414.93,160.2 174.5,52.6 353.5,88.9 532.3,125.2 562.2,113.9 1124.5,227.9 1689.1,330 108.3,19.6 217.9,38.8 327.8,32.8 278.9,-15.3 521.1,-188.1 745.7,-354.3 126.1,-93.2 252.2,-186.5 378.3,-279.8 l -15.5,-14.7" /></g><g
         transform="scale(1.16746)"
         id="g184"><path
           id="path186"
           style="fill:#5e565a;fill-opacity:1;fill-rule:nonzero;stroke:none"
           d="m 13876.8,15638.3 c -315.1,103.1 -611.8,253.6 -927.8,354.7 -86.9,27.7 -174.1,62.7 -266.6,59.4 -105,-3.8 -209.9,-15.7 -314.3,-27.3 -263.6,-29.4 -526,-71.5 -788.5,-109 -266.3,-38 -531.9,-79.7 -796.6,-127.3 -164.7,-29.7 -329,-60.4 -494.5,-85.8 -128.9,-19.7 -258.2,-37.5 -386.55,-61.7 -32.72,-6.2 -65.36,-12.9 -97.91,-19.8 14.48,-5.9 29.04,-11.8 43.52,-17.8 -2.92,5.9 -5.83,11.7 -8.83,17.5 -4.54,-17.5 -9.16,-35.2 -13.79,-52.7 255.06,120.9 524.26,195.3 799.76,252.9 284.1,59.4 569,115.8 853.8,172.4 287.2,57.1 574.6,112.8 862.6,165.6 140.4,25.8 283.4,58.9 427.1,49.8 120.7,-7.7 237.3,-48.6 344.3,-103.3 113,-57.9 217.6,-130.5 319.9,-205.3 114.6,-83.7 228.3,-168.7 342.4,-253.2 29.3,-21.6 58.6,-43.2 87.8,-64.9 -2.6,20.2 -5.1,40.3 -7.8,60.6 -5.1,-4.9 -10.3,-9.8 -15.4,-14.7 -36.2,-34.1 18.4,-88.5 54.5,-54.5 5.1,4.9 10.3,9.8 15.5,14.6 19.7,18.6 11.3,46.4 -7.8,60.6 -119.3,88.2 -238.5,176.4 -357.7,264.6 -103.7,76.8 -207.8,153.8 -319.5,218.8 -109,63.3 -226.7,116.4 -351,140.2 -142.7,27.3 -283.9,9.4 -425.5,-15.8 -290.8,-51.9 -580.9,-108 -870.8,-165.2 -290.9,-57.4 -581.6,-116.2 -872.2,-175.3 -142,-28.9 -284,-58.4 -423.8,-97 -136.9,-37.7 -270.7,-85.2 -400.99,-141.7 -31.61,-13.7 -62.96,-27.9 -94.05,-42.7 -19.62,-9.2 -22.53,-35.5 -13.88,-52.7 3,-5.8 5.91,-11.6 8.82,-17.4 7.97,-15.8 27.5,-21.2 43.51,-17.8 126.43,27.1 254.19,47 381.99,66.2 157.6,23.5 314.6,49.3 471.2,78.2 272.6,50.3 545.9,95.7 820.2,135.5 138.9,20.3 278,39.6 417,59.2 83.6,11.8 167.2,23.7 250.7,35.7 22.2,3.1 44.3,6.3 66.5,9.6 4.4,0.6 8.9,1.2 13.2,1.8 7.4,1.2 -10.4,-1.3 1.4,0.2 17.1,2.2 34.2,4.4 51.3,6.4 104.4,12.5 209.2,23.9 314,31.4 39.1,2.8 78.9,6.5 118.1,4.2 2.4,-0.2 5.1,-0.8 7.5,-0.6 3.9,0.2 -11.6,2.5 -0.5,-0.2 10.4,-2.5 20.9,-4.9 31.3,-7.6 28.1,-7.6 56,-16 83.8,-24.6 140.1,-42.9 278,-91.6 413.7,-146.9 153,-62.3 303.9,-129.4 459.1,-186.1 43.5,-15.9 87.3,-31.1 131.4,-45.5 47.2,-15.4 67.5,58.9 20.4,74.3" /></g><g
         transform="scale(1.04116)"
         id="g188"><path
           id="path190"
           style="fill:#5e565a;fill-opacity:1;fill-rule:nonzero;stroke:none"
           d="m 14640.5,15853.9 c 171,2.3 317.5,109.1 414.9,243 30.4,41.7 55.9,86.9 77.1,133.9 9.2,20.7 6.6,47.5 -15.6,59.2 -18.8,10 -49.3,6.5 -59.1,-15.5 -17.8,-39.7 -38.7,-77.9 -63,-114.1 -5.6,-8.2 -11.4,-16.4 -17.4,-24.4 -1.8,-2.5 -3.6,-5 -5.5,-7.5 1,1.3 5.1,6.4 0,0 -3.5,-4.4 -6.9,-8.7 -10.4,-12.9 -12.7,-15.3 -26,-29.9 -40.1,-43.9 -14,-14 -28.7,-27.3 -44,-39.8 -2.2,-1.7 -12.6,-9.8 -4.7,-3.8 -3.7,-2.7 -7.3,-5.5 -10.9,-8.2 -7.8,-5.5 -15.6,-10.8 -23.6,-16 -15.2,-9.8 -31,-18.7 -47.2,-26.7 -3.8,-1.9 -7.8,-3.8 -11.7,-5.6 -3.2,-1.4 -13.5,-5.7 -4.4,-2.1 -8.9,-3.6 -17.7,-7 -26.8,-10.1 -18.7,-6.3 -38.1,-11.3 -57.6,-14.9 -2,-0.4 -4.1,-0.6 -6.1,-1 -1.4,-0.2 -10.4,-1.8 -3.5,-0.6 6.5,1.2 -0.2,0 -1.9,-0.2 -2.6,-0.3 -5.1,-0.6 -7.7,-0.8 -10.2,-1 -20.5,-1.5 -30.8,-1.6 -22.7,-0.3 -44.3,-19.7 -43.2,-43.2 0.9,-23.2 18.9,-43.6 43.2,-43.2" /></g><g
         transform="scale(1.04653)"
         id="g192"><path
           id="path194"
           style="fill:#5e565a;fill-opacity:1;fill-rule:nonzero;stroke:none"
           d="m 14557.5,16273.6 c -8.2,-13.7 -16.8,-27.1 -26.1,-40.1 -2.3,-3.2 -4.7,-6.3 -7,-9.5 -7.6,-10.3 5.2,6.3 -2.8,-3.6 -4.7,-5.9 -9.6,-11.8 -14.7,-17.7 -19.4,-22.2 -40.8,-42.8 -64,-61.1 5.8,4.6 -0.1,0 -2.7,-1.9 -2.8,-2.1 -5.7,-4.1 -8.7,-6.3 -5.7,-3.9 -11.5,-7.8 -17.5,-11.4 -11.7,-7.3 -23.7,-13.9 -36.2,-19.8 -3,-1.4 -6.1,-2.8 -9.2,-4.2 -8.3,-3.8 7.1,2.6 -2.1,-0.9 -5.8,-2.1 -11.4,-4.3 -17.2,-6.3 -13,-4.3 -26.3,-7.7 -39.8,-10.4 -22.1,-4.5 -36.8,-31.9 -30,-52.9 7.6,-23.4 29.2,-34.8 52.9,-30 129.2,25.8 233.4,122.5 299.3,232.7 11.6,19.3 5,48 -15.4,58.8 -20.8,11 -46.5,5.2 -58.8,-15.4" /></g><g
         transform="scale(1.05701)"
         id="g196"><path
           id="path198"
           style="fill:#5e565a;fill-opacity:1;fill-rule:nonzero;stroke:none"
           d="m 14054.2,16273.9 c -7.4,-12.7 -15.2,-25.2 -23.5,-37.4 -3.7,-5.5 -7.6,-10.8 -11.5,-16.2 -2.2,-3.1 -4.6,-6.2 -7,-9.3 3.7,4.7 0.1,0.1 -1.7,-2.1 -16.9,-21.2 -35.4,-41.2 -55.2,-59.4 -4.6,-4.2 -9.1,-8.3 -13.7,-12.2 -2.8,-2.4 -5.6,-4.7 -8.4,-6.9 -0.8,-0.7 -8.6,-6.9 -4.1,-3.4 4.3,3.4 -3.4,-2.6 -4.3,-3.3 -2.8,-2 -5.8,-4.1 -8.7,-6.2 -4.8,-3.3 -9.6,-6.6 -14.6,-9.8 -10.6,-6.8 -21.6,-13.3 -33,-19.1 -5,-2.7 -10.1,-5.2 -15.3,-7.5 -3,-1.4 -6.2,-2.9 -9.3,-4.2 6.7,2.9 1.4,0.7 -2.2,-0.8 -20.7,-8.2 -37.4,-28.9 -29.8,-52.4 6.5,-20 30.2,-38.5 52.4,-29.8 113.7,44.7 202.2,132.7 263.4,237 11.3,19.2 5.1,47.5 -15.2,58.3 -20.4,10.8 -46.3,5.2 -58.3,-15.3" /></g><g
         transform="scale(2.0055)"
         id="g200"><path
           id="path202"
           style="fill:#d29e93;fill-opacity:1;fill-rule:nonzero;stroke:none"
           d="m 16292.5,6464.61 c -2.5,0 -4.9,0.4 -7.2,1.25 1.2,1 2.3,1.99 3.5,3.04 l 9.1,2.79 c 0.7,-1.89 1.4,-3.79 2.1,-5.73 -0.5,-0.2 -1.1,-0.4 -1.6,-0.55 -2,-0.55 -4,-0.8 -5.9,-0.8 m -433.1,2166.99 -0.8,0.55 c 0.2,0 0.5,0 0.7,0 0,-0.2 0,-0.4 0.1,-0.55" /></g><g
         transform="scale(2.00771)"
         id="g204"><path
           id="path206"
           style="fill:#d09181;fill-opacity:1;fill-rule:nonzero;stroke:none"
           d="m 16267.4,6458.75 c -6.7,2.39 -12,8.06 -14.6,15.19 -6.1,17.03 -12.2,34.12 -18.2,51.2 -49,138.12 -94.3,277.53 -135.3,418.19 -40.1,137.32 -76.2,275.78 -107.4,415.39 -30.5,136.63 -56.4,274.3 -76.6,412.81 -20,136.88 -31.6,274.54 -47,411.92 -15.5,139.06 -33.6,277.82 -49.7,416.79 -1.4,12.1 11.4,22.41 22.4,22.41 0,0 0.1,0 0.1,0 l 0.8,-0.55 c 0,0.15 0,0.35 0,0.55 12.5,-0.45 20.1,-10.66 21.5,-22.41 2.1,-17.93 4.2,-35.86 6.3,-53.84 16.4,-137.18 34.1,-274.2 48.8,-411.62 14.6,-136.12 27.2,-272.05 48.5,-407.38 21.6,-137.52 48.6,-274.19 80.2,-409.77 32.5,-139.71 69.8,-278.27 111,-415.69 42.1,-139.96 88.3,-278.63 137.9,-416.1 3.9,-10.81 -3.8,-23.16 -14,-26.99 -0.7,1.94 -1.4,3.83 -2.1,5.72 l -9.1,-2.79 c -1.2,-1.04 -2.3,-2.04 -3.5,-3.03" /></g><g
         transform="scale(2.9275)"
         id="g208"><path
           id="path210"
           style="fill:#d29e93;fill-opacity:1;fill-rule:nonzero;stroke:none"
           d="m 16298.7,4431.67 c -1.3,0 -2.7,0.17 -4.1,0.55 -0.4,0.1 -0.7,0.24 -1.1,0.37 1,2.94 2.1,5.88 3.2,8.81 l 3.3,-9.66 c -0.4,-0.07 -0.9,-0.07 -1.3,-0.07" /></g><g
         transform="scale(2.98322)"
         id="g212"><path
           id="path214"
           style="fill:#d09181;fill-opacity:1;fill-rule:nonzero;stroke:none"
           d="m 15995.5,4348.96 -3.3,9.48 c -1,-2.88 -2,-5.76 -3.1,-8.65 -6.9,2.59 -12,10.93 -9.4,18.21 4.1,11.43 8.2,22.86 12.2,34.32 32.5,91.85 62.6,184.54 89.9,278.02 26.7,91.28 50.7,183.33 71.5,276.15 20.4,90.84 37.8,182.38 51.4,274.5 13.4,90.51 21.1,181.55 31,272.46 10.3,94.46 22.2,188.75 33.2,283.15 0.9,8.14 6.1,15.08 15,15.08 7.5,0 16.1,-6.97 15.1,-15.08 -1.4,-12.14 -2.8,-24.27 -4.2,-36.37 -11.2,-94.26 -22.9,-188.46 -32.7,-282.85 -9.7,-92.12 -18.7,-184.03 -33,-275.57 -14.5,-92.29 -32.7,-183.97 -53.9,-274.98 -21.8,-93.75 -46.8,-186.74 -74.5,-278.96 -28,-93.45 -58.8,-186.11 -91.9,-277.88 -2.2,-6.04 -7.2,-10.5 -13.3,-11.03" /></g><g
         transform="scale(2.23953)"
         id="g216"><path
           id="path218"
           style="fill:#d09181;fill-opacity:1;fill-rule:nonzero;stroke:none"
           d="m 16277.9,3121.23 c -8.7,0 -17.3,6.38 -19.5,14.83 -6.9,26.7 -13.9,53.31 -21.1,79.92 -15.2,56.4 -30.2,113.06 -48.6,168.52 -12.3,37.15 -26.3,73.77 -41,110.02 -2.9,7.01 -5.8,14.02 -8.7,21.03 -0.5,1.07 -0.9,2.19 -1.4,3.26 -0.1,0.36 -0.2,0.67 -0.4,0.98 0,0.18 -0.1,0.41 -0.2,0.59 -0.1,0.17 -0.2,0.31 -0.2,0.4 -0.9,2.23 -1.9,4.46 -2.8,6.7 -2,4.68 -4,9.37 -6.1,14.02 -4.6,10.31 -2.8,21.07 7.2,27.5 2.8,1.79 6.3,2.68 9.9,2.68 7.2,0 14.7,-3.48 17.6,-9.91 9.7,-21.79 18.8,-43.9 27.7,-66.04 24.7,-61.76 45.4,-124.45 63.5,-188.39 15.1,-53.36 29.4,-106.94 43.4,-160.57 2.8,-10.94 -3.6,-21.34 -14.1,-24.74 -1.7,-0.53 -3.5,-0.8 -5.2,-0.8 m -140.1,397.27 c 0,-0.04 0,-0.09 0,-0.09 v 0 c 0,0.05 0,0.05 0,0.09" /></g><g
         transform="scale(2.69673)"
         id="g220"><path
           id="path222"
           style="fill:#d29e93;fill-opacity:1;fill-rule:nonzero;stroke:none"
           d="m 16294.9,2579.57 -0.1,8.38 c 1.8,1.33 3.5,2.63 5.2,3.97 -0.7,-2.19 -1.4,-4.38 -2,-6.57 -0.7,-2.19 -1.8,-4.11 -3.1,-5.78" /></g><g
         transform="scale(2.71694)"
         id="g224"><path
           id="path226"
           style="fill:#d09181;fill-opacity:1;fill-rule:nonzero;stroke:none"
           d="m 16160.5,2554.08 c -1.4,0 -2.8,0.19 -4.2,0.48 -8.5,1.95 -14.1,12.11 -11.5,20.39 7.5,24.07 14.8,48.18 22.3,72.29 14.6,47.81 29.1,95.73 44.6,143.32 16.1,49.32 35.1,97.94 56.2,145.35 2.4,5.52 8.2,7.98 14,7.98 3.1,0 6.1,-0.69 8.6,-2.02 8.5,-4.49 9.5,-14.76 6,-22.67 -2.5,-5.67 -5,-11.41 -7.4,-17.12 0,-0.03 0,-0.07 0,-0.07 0,0 0,0.04 0,0.07 -0.1,-0.18 -0.2,-0.36 -0.3,-0.55 -0.1,-0.48 -0.3,-0.81 -0.4,-0.96 0,-0.07 0,-0.18 -0.1,-0.25 -0.6,-1.55 -1.3,-3.06 -1.9,-4.6 -1.5,-3.65 -3,-7.25 -4.5,-10.9 -3.2,-7.99 -6.5,-15.97 -9.6,-24.03 -20,-50.68 -36.2,-102.43 -52.4,-154.41 -13.8,-44.57 -27.3,-89.21 -41.2,-133.75 -1.7,-1.32 -3.4,-2.61 -5.1,-3.94 v -8.31 c -3.1,-4.02 -7.9,-6.3 -13.1,-6.3 m 128.7,348.19 c -0.1,-0.08 -0.1,-0.11 -0.1,-0.19 0,0.08 0,0.11 0.1,0.19 m -0.8,-1.88 c 0,0 0,0.07 0,0.18 0.3,0.48 0.4,0.96 0.7,1.44 -0.4,-0.77 -0.7,-1.62 -0.7,-1.62" /></g></g></g></svg>